<?xml version="1.0" encoding="utf-8"?>
<!-- Generator: Adobe Illustrator 21.1.0, SVG Export Plug-In . SVG Version: 6.00 Build 0)  -->
<svg version="1.1" id="icon-area" xmlns="http://www.w3.org/2000/svg" xmlns:xlink="http://www.w3.org/1999/xlink" x="0px" y="0px"
	 viewBox="0 0 368.1 367" style="enable-background:new 0 0 368.1 367;" xml:space="preserve">
<style type="text/css">
	.st0{fill:#FFFFFF;}
</style>
<g>
	<path d="M154.495,175.849c-0.595-0.239-1.202-0.502-1.964-0.809c1.56-0.907,2.976-1.691,4.368-2.476
		c9.366-5.403,16.424-12.83,20.112-23.134c3.644-10.164,4.214-20.636,2.678-31.204c-2.881-19.852-13.449-34.061-31.835-42.271
		c-11.257-5.021-23.229-6.927-35.44-6.998c-15.823-0.061-31.643-0.078-47.462-0.078c-21.276,0-42.552,0.031-63.82,0.031
		c-0.368,0-0.726,0.046-1.131,0.117c0,76.283,0,152.496,0,228.896c0.763,0,1.37,0,1.989,0c33.595,0,67.19,0,100.81,0.024
		c0.152,0,0.303,0.001,0.455,0.001c9.629,0,19.176-0.765,28.714-2.357c22.527-3.808,38.854-15.97,48.972-36.32
		c6.998-14.09,8.352-29.037,5.52-44.295C182.95,196.223,172.323,183.061,154.495,175.849z M52.876,108.706
		c0.488,0,0.941-0.049,1.416-0.049c7.043,0,14.092-0.011,21.142-0.011c7.231,0,14.463,0.012,21.688,0.06
		c7.687,0,15.315,0.714,22.766,2.761c8.438,2.333,13.544,8.328,14.602,17.088c0.548,4.643,0.441,9.259-0.821,13.805
		c-1.475,5.379-4.616,9.378-9.569,11.996c-6.712,3.521-13.934,4.76-21.372,4.809c-6.95,0.06-13.903,0.078-20.86,0.078
		c-9.34,0-18.685-0.031-28.016-0.031c-0.297,0-0.558-0.046-0.975-0.046C52.876,142.313,52.876,125.581,52.876,108.706z
		 M138.382,235.852c-2.69,11.567-10.043,18.517-21.54,20.803c-4.772,0.95-9.7,1.428-14.567,1.474
		c-7.633,0.091-15.267,0.116-22.905,0.116c-8.415,0-16.834-0.031-25.255-0.043c-0.383,0-0.75-0.049-1.238-0.073
		c0-20.372,0-40.556,0-60.836c0.273-0.046,0.488-0.117,0.702-0.117c17.495,0.022,34.987-0.023,52.481,0.117
		c5.606,0.049,11.175,0.883,16.508,2.786c10.387,3.736,16.352,11.877,16.802,22.92C139.559,227.307,139.369,231.613,138.382,235.852
		z"/>
	<path d="M368.1,219.715c-0.214-8.214-0.189-16.425-0.689-24.564c-0.692-11.163-3.463-21.848-8.557-31.846
		c-7.855-15.423-19.126-27.324-35.382-33.987c-11.647-4.799-23.606-7.121-35.743-7.121c-6.103,0-12.251,0.587-18.427,1.742
		c-29.788,5.569-50.045,22.659-59.111,51.838c-6.391,20.66-6.332,41.747-1.833,62.835c2.523,11.949,7.402,22.897,15.911,31.847
		c10.543,11.114,23.515,18.326,38.165,22.564c8.513,2.45,17.111,3.53,25.77,3.53c5.636,0,11.299-0.458,16.977-1.293
		c18.197-2.666,33.858-10.282,46.164-24.231c5.664-6.424,10.58-13.28,13.078-21.61c0.607-2.048,1.012-4.212,1.548-6.522
		c-0.797,0-1.287,0-1.75,0c-13.565,0-27.121,0-40.699,0c-1.097,0-1.667,0.285-2.226,1.287c-4.809,8.757-12.021,14.375-21.874,16.493
		c-3.365,0.711-6.741,1.062-10.12,1.062c-3.291,0-6.585-0.333-9.873-0.989c-11.806-2.335-20.982-8.354-26.324-19.471
		c-2.035-4.236-3.213-8.711-3.808-13.329c-0.309-2.284-0.499-4.616-0.738-7.044c39.974,0,79.628,0,119.481,0
		C368.063,220.38,368.1,220.047,368.1,219.715z M323.438,192.486c-24.553,0-49.079,0-73.773,0c0.249-1.453,0.368-2.832,0.761-4.144
		c1.072-3.521,1.965-7.139,3.463-10.471c5.606-12.474,15.377-19.113,29.016-19.995c1.323-0.086,2.641-0.133,3.953-0.133
		c5.214,0,10.328,0.747,15.255,2.799c11.898,4.904,18.672,13.899,20.802,26.468c0.236,1.569,0.405,3.142,0.57,4.712
		C323.521,191.962,323.472,192.201,323.438,192.486z"/>
	<path d="M332.326,78.455c-30.738,0-61.348,0-92.053,0c0,8.781,0,17.492,0,26.396c30.763,0,61.421,0,92.053,0
		C332.326,95.996,332.326,87.236,332.326,78.455z"/>
	<path class="st0" d="M81.867,159.242c6.957,0,13.91-0.018,20.86-0.078c7.438-0.049,14.66-1.287,21.372-4.809
		c4.953-2.618,8.094-6.617,9.569-11.996c1.263-4.546,1.37-9.162,0.821-13.805c-1.058-8.76-6.164-14.755-14.602-17.088
		c-7.451-2.047-15.079-2.761-22.766-2.761c-7.225-0.048-14.457-0.06-21.688-0.06c-7.05,0-14.099,0.011-21.142,0.011
		c-0.475,0-0.928,0.049-1.416,0.049c0,16.875,0,33.607,0,50.458c0.417,0,0.678,0.046,0.975,0.046
		C63.182,159.21,72.527,159.242,81.867,159.242z"/>
	<path class="st0" d="M122.567,200.078c-5.333-1.903-10.902-2.737-16.508-2.786c-17.494-0.141-34.986-0.095-52.481-0.117
		c-0.214,0-0.429,0.071-0.702,0.117c0,20.28,0,40.464,0,60.836c0.488,0.024,0.855,0.073,1.238,0.073
		c8.42,0.012,16.84,0.043,25.255,0.043c7.639,0,15.272-0.025,22.905-0.116c4.867-0.046,9.795-0.523,14.567-1.474
		c11.497-2.286,18.85-9.235,21.54-20.803c0.987-4.238,1.177-8.545,0.987-12.854C138.918,211.955,132.954,203.814,122.567,200.078z"
		/>
	<path class="st0" d="M322.913,187.012c-2.13-12.569-8.903-21.564-20.802-26.468c-4.927-2.052-10.041-2.799-15.255-2.799
		c-1.313,0-2.63,0.047-3.953,0.133c-13.639,0.882-23.409,7.521-29.016,19.995c-1.498,3.332-2.391,6.949-3.463,10.471
		c-0.393,1.312-0.512,2.69-0.761,4.144c24.694,0,49.221,0,73.773,0c0.034-0.285,0.083-0.524,0.046-0.763
		C323.318,190.153,323.149,188.581,322.913,187.012z"/>
</g>
</svg>
