<?xml version="1.0" encoding="utf-8"?>
<!-- Generator: Adobe Illustrator 18.1.1, SVG Export Plug-In . SVG Version: 6.00 Build 0)  -->
<svg version="1.1" id="icon-area" xmlns="http://www.w3.org/2000/svg" xmlns:xlink="http://www.w3.org/1999/xlink" x="0px" y="0px"
	 viewBox="420 0 1080 1080" enable-background="new 420 0 1080 1080" xml:space="preserve">
<g>
	<path d="M1409.7,291h-314.9v-90h314.9V291z M1487.4,740.9c-19.9,58.3-91.3,135-229.5,135c-138.3,0-250.3-77.8-250.3-255.3
		c0-175.9,104.6-266.3,245.9-266.3c138.6,0,223.3,80.2,241.8,199.1c3.5,22.8,4.9,53.4,4.3,96.3h-361.1
		c5.8,144.5,156.7,149,206.4,91.3H1487.4z M1141.6,560.9h223.4c-4.7-69.6-51.1-99.8-111.4-99.8
		C1187.6,461.1,1151.1,495.6,1141.6,560.9z M710.9,875.3H420V202h312.8c246.3,3.6,251,244.9,122.4,310.7
		C1010.9,569.3,1016.1,875.3,710.9,875.3z M555,470.9h161.2c112.8,0,130.7-135-14-135H555V470.9z M707.5,605.9H555v135.7h150.3
		C842.7,741.6,834.3,605.9,707.5,605.9z"/>
</g>
</svg>
