<?xml version="1.0" encoding="utf-8"?>
<!-- Generator: Adobe Illustrator 21.1.0, SVG Export Plug-In . SVG Version: 6.00 Build 0)  -->
<svg version="1.1" id="Слой_1" xmlns="http://www.w3.org/2000/svg" xmlns:xlink="http://www.w3.org/1999/xlink" x="0px" y="0px"
	 viewBox="0 0 640 640" style="enable-background:new 0 0 640 640;" xml:space="preserve">
<g>
	<path d="M614.1,196.7c-24.2-57.3-64.7-106-115.6-140.4C473.1,39.1,445,25.5,415,16.2c-30-9.3-61.9-14.4-94.9-14.4
		c-44,0-86,8.9-124.2,25.1c-57.3,24.2-106,64.7-140.4,115.6C38.3,167.9,24.7,196,15.4,226C6,256,1,287.9,1,320.9
		c0,44,8.9,86,25.1,124.2c24.2,57.3,64.7,106,115.6,140.4c25.5,17.2,53.6,30.8,83.5,40.2c30,9.3,61.9,14.4,94.9,14.3
		c44,0,86-8.9,124.2-25.1c57.3-24.2,106-64.7,140.4-115.6c17.2-25.5,30.8-53.6,40.2-83.5c9.3-30,14.4-61.9,14.3-94.9
		C639.2,276.9,630.3,234.9,614.1,196.7z M564.7,424.2c-20.1,47.6-53.8,88.2-96.2,116.8c-21.2,14.3-44.5,25.6-69.4,33.4
		c-24.9,7.7-51.4,11.9-78.9,11.9c-36.7,0-71.6-7.4-103.3-20.8c-47.6-20.1-88.2-53.8-116.8-96.2c-14.3-21.2-25.6-44.5-33.4-69.4
		c-7.7-24.9-11.9-51.4-11.9-78.9c0-36.7,7.4-71.6,20.8-103.3c20.1-47.6,53.8-88.2,96.2-116.8c21.2-14.3,44.5-25.6,69.4-33.4
		c24.9-7.7,51.4-11.9,78.9-11.9c36.7,0,71.6,7.4,103.3,20.8c47.6,20.1,88.2,53.8,116.8,96.2c14.3,21.2,25.6,44.5,33.4,69.4
		c7.7,24.9,11.9,51.4,11.9,78.9C585.5,357.6,578.1,392.5,564.7,424.2z"/>
	<path d="M460,181.6c-8.4-9.4-22.5-9.8-31.5-0.9L320.4,287.9L212.2,180.7c-8.9-8.9-23-8.4-31.5,0.9c-8.4,9.4-8,24.2,0.9,33L288,320
		L181.7,425.4c-8.9,8.9-9.3,23.6-0.9,33c8.4,9.4,22.5,9.8,31.5,0.9l108.2-107.2l108.2,107.2c8.9,8.9,23,8.4,31.5-0.9
		c8.4-9.4,8-24.2-0.9-33L352.8,320l106.3-105.4C468.1,205.8,468.5,191,460,181.6z"/>
</g>
</svg>
