<?xml version="1.0" encoding="utf-8"?>
<!-- Generator: Adobe Illustrator 21.1.0, SVG Export Plug-In . SVG Version: 6.00 Build 0)  -->
<svg version="1.1" id="Слой_1" xmlns="http://www.w3.org/2000/svg" xmlns:xlink="http://www.w3.org/1999/xlink" x="0px" y="0px"
	 viewBox="0 0 640 640" style="enable-background:new 0 0 640 640;" xml:space="preserve">
<path d="M391.2,320L624.7,88.6c19.6-19.5,20.5-51.9,2-72.5c-18.6-20.6-49.5-21.5-69.1-2L320,249.4L82.5,14
	c-19.6-19.5-50.6-18.5-69.1,2c-18.6,20.6-17.7,53.1,2,72.5L248.8,320L15.3,551.4c-19.6,19.5-20.5,51.9-2,72.5
	c18.6,20.6,49.5,21.5,69.1,2L320,390.6L557.5,626c19.6,19.5,50.6,18.5,69.1-2s17.7-53.1-2-72.5L391.2,320z"/>
</svg>
