<?xml version="1.0" encoding="utf-8"?>
<!-- Generator: Adobe Illustrator 21.1.0, SVG Export Plug-In . SVG Version: 6.00 Build 0)  -->
<svg version="1.1" id="Слой_1" xmlns="http://www.w3.org/2000/svg" xmlns:xlink="http://www.w3.org/1999/xlink" x="0px" y="0px"
	 viewBox="0 0 640 640" style="enable-background:new 0 0 640 640;" xml:space="preserve">
<g>
</g>
<polygon points="229.2,510.8 212.6,528.2 319,640 425.4,528.2 408.9,510.8 330.7,592.8 330.7,223.9 307.3,223.9 307.3,592.8 "/>
<path d="M525.2,182.2c0-1.8,0.3-3.5,0.3-5.4C525.5,79.1,449.9,0,358.6,0c-65.9,0-122.6,41.2-149.2,100.6
	c-11.6-6.1-24.4-9.7-38.3-9.7c-42.3,0-77.3,35.8-84.1,78.9C36.8,188.3,0.5,236.6,0.5,296.6c0,75.6,57.3,137.2,128,137.2h130.7v-24.6
	H129.6c-58.4,0-106-51.1-106-113.4c0-48.3,28.9-88.5,71.7-104.2l12-4.3l2.1-13.4c5.2-32.8,31.6-59.7,62.7-59.7
	c9.8,0,19.6,2.5,28.4,7.2l19.3,10.3l9.3-20.9c23.7-52.9,74.4-87.1,129.1-87.1c79,0,144.1,65.8,144.1,150.2c0,20.1-0.3,30.9-0.3,30.9
	l21.7,0.2c52.4,0.8,93.7,46.2,93.7,102.2c0,55.8-42.6,101.7-95,102l-4.6,0.2H379.2V434h144.3c64.3,0,117-57.2,117-126.3
	C640.5,238.5,589.9,182.3,525.2,182.2"/>
</svg>
