<?xml version="1.0" encoding="utf-8"?>
<!-- Generator: Adobe Illustrator 18.1.1, SVG Export Plug-In . SVG Version: 6.00 Build 0)  -->
<svg version="1.1" id="icon-area" xmlns="http://www.w3.org/2000/svg" xmlns:xlink="http://www.w3.org/1999/xlink" x="0px" y="0px"
	 viewBox="-320 521.89 640 640" enable-background="new -320 521.89 640 640" xml:space="preserve">
<path d="M0.513,528.89C-176.57,528.89-320,672.4-320,849.403c0,141.64,91.827,261.752,219.151,304.087
	c16.026,3.018,21.902-6.891,21.902-15.411c0-7.612-0.267-27.778-0.401-54.487c-89.156,19.338-107.959-43.002-107.959-43.002
	c-14.583-36.993-35.657-46.875-35.657-46.875c-29.033-19.872,2.244-19.471,2.244-19.471c32.185,2.244,49.092,33.013,49.092,33.013
	c28.579,49.012,75.027,34.856,93.349,26.656c2.885-20.726,11.138-34.856,20.299-42.869
	c-71.181-8.013-145.994-35.577-145.994-158.387c0-34.989,12.42-63.568,32.986-86.004c-3.606-8.093-14.423-40.678,2.804-84.829
	c0,0,26.843-8.6,88.141,32.853c25.641-7.131,52.885-10.657,80.128-10.817c27.244,0.16,54.487,3.686,80.128,10.817
	c60.897-41.453,87.74-32.853,87.74-32.853c17.228,44.151,6.41,76.736,3.205,84.829c20.433,22.436,32.853,51.015,32.853,86.004
	c0,123.13-74.92,150.24-146.234,158.12c11.218,9.615,21.635,29.274,21.635,59.295c0,42.895-0.401,77.351-0.401,87.767
	c0,8.413,5.609,18.429,22.035,15.224c128.232-42.041,219.979-162.233,219.979-303.659C321.026,672.4,177.516,528.89,0.513,528.89"/>
</svg>
