<?xml version="1.0" encoding="utf-8"?>
<!-- Generator: Adobe Illustrator 18.1.1, SVG Export Plug-In . SVG Version: 6.00 Build 0)  -->
<svg version="1.1" id="icon-area" xmlns="http://www.w3.org/2000/svg" xmlns:xlink="http://www.w3.org/1999/xlink" x="0px" y="0px"
	 viewBox="-320 521.89 640 640" enable-background="new -320 521.89 640 640" xml:space="preserve">
<path d="M144,521.89c-56.016,0-108.8,27.913-144,73.249c-35.2-45.336-88-73.249-144.015-73.249
	c-99.2,0-175.985,83.714-175.985,191.829c0,132.529,108.785,238.911,273.584,402.807L0,1161.89l46.4-45.364
	C211.2,952.613,320,846.232,320,713.719C320,605.604,243.2,521.89,144,521.89 M19.739,1070.641l-6.493,6.453L0,1090.057
	l-13.262-12.947l-6.477-6.47c-77.569-77.114-144.554-143.747-188.846-203.312c-43.015-57.848-62.185-105.23-62.185-153.61
	c0-38.118,12.954-73.216,36.477-98.867c23.461-25.549,55.523-39.631,90.277-39.631c40.231,0,79.969,20.284,106.323,54.247L0,677.986
	l37.677-48.518c26.369-33.963,66.108-54.247,106.323-54.247c34.769,0,66.831,14.083,90.277,39.631
	c23.538,25.65,36.477,60.749,36.477,98.867c0,48.379-19.169,95.762-62.184,153.61C164.292,926.894,97.308,993.51,19.739,1070.641"/>
</svg>
