<?xml version="1.0" encoding="utf-8"?>
<!-- Generator: Adobe Illustrator 18.1.1, SVG Export Plug-In . SVG Version: 6.00 Build 0)  -->
<svg version="1.1" id="icon-area" xmlns="http://www.w3.org/2000/svg" xmlns:xlink="http://www.w3.org/1999/xlink" x="0px" y="0px"
	 viewBox="240.9 0 367.1 367" enable-background="new 240.9 0 367.1 367" xml:space="preserve">
<path d="M424.5-0.1c-49.9,0-56.1,0.2-75.7,1.1C329.3,2,316,5,304.3,9.6c-12.1,4.7-22.3,11-32.5,21.2c-10.2,10.2-16.5,20.4-21.2,32.5
	c-4.5,11.7-7.6,25-8.5,44.6c-0.9,19.6-1.1,25.8-1.1,75.7s0.2,56.1,1.1,75.7c0.9,19.5,4,32.9,8.5,44.6c4.7,12.1,11,22.3,21.2,32.5
	c10.2,10.2,20.4,16.5,32.5,21.2c11.7,4.5,25,7.6,44.6,8.5c19.6,0.9,25.8,1.1,75.7,1.1s56.1-0.2,75.7-1.1c19.5-0.9,32.9-4,44.6-8.5
	c12.1-4.7,22.3-11,32.5-21.2c10.2-10.2,16.5-20.4,21.2-32.5c4.5-11.7,7.6-25,8.5-44.6c0.9-19.6,1.1-25.8,1.1-75.7
	s-0.2-56.1-1.1-75.7c-0.9-19.5-4-32.9-8.5-44.6c-4.7-12.1-11-22.3-21.2-32.5c-10.2-10.2-20.4-16.5-32.5-21.2
	C533,5,519.7,1.9,500.2,1C480.6,0.1,474.4-0.1,424.5-0.1z M424.5,33c49,0,54.8,0.2,74.2,1.1c17.9,0.8,27.6,3.8,34.1,6.3
	c8.6,3.3,14.7,7.3,21.1,13.7c6.4,6.4,10.4,12.5,13.7,21.1c2.5,6.5,5.5,16.2,6.3,34.1c0.9,19.4,1.1,25.2,1.1,74.2s-0.2,54.8-1.1,74.2
	c-0.9,17.9-3.9,27.6-6.4,34.1c-3.4,8.6-7.3,14.7-13.8,21.1c-6.4,6.4-12.6,10.4-21.1,13.7c-6.4,2.5-16.3,5.5-34.2,6.3
	c-19.5,0.9-25.2,1.1-74.3,1.1c-49.1,0-54.9-0.2-74.3-1.1c-17.9-0.9-27.8-3.9-34.2-6.4c-8.7-3.4-14.7-7.3-21.1-13.8
	c-6.4-6.4-10.6-12.6-13.8-21.1c-2.5-6.4-5.5-16.3-6.4-34.2c-0.7-19.3-0.9-25.2-0.9-74.1c0-48.9,0.2-54.9,0.9-74.4
	c0.9-17.9,3.9-27.7,6.4-34.2c3.2-8.7,7.3-14.7,13.8-21.1c6.4-6.4,12.4-10.5,21.1-13.7c6.4-2.5,16.1-5.5,34-6.4
	c19.5-0.7,25.2-0.9,74.3-0.9C423.8,32.5,424.5,33,424.5,33z M424.5,89.2c-52.1,0-94.3,42.2-94.3,94.3c0,52.1,42.2,94.3,94.3,94.3
	c52.1,0,94.3-42.2,94.3-94.3C518.8,131.4,476.5,89.2,424.5,89.2L424.5,89.2z M424.5,244.7c-33.8,0-61.2-27.4-61.2-61.2
	s27.4-61.2,61.2-61.2s61.2,27.4,61.2,61.2S458.3,244.7,424.5,244.7z M544.5,85.5c0,12.2-9.9,22-22,22c-12.2,0-22-9.9-22-22
	s9.9-22,22-22C534.6,63.5,544.5,73.4,544.5,85.5z"/>
</svg>
