<?xml version="1.0" encoding="utf-8"?>
<!-- Generator: Adobe Illustrator 18.1.1, SVG Export Plug-In . SVG Version: 6.00 Build 0)  -->
<svg version="1.1" id="icon-area" xmlns="http://www.w3.org/2000/svg" xmlns:xlink="http://www.w3.org/1999/xlink" x="0px" y="0px"
	 viewBox="-320 521.89 640 640" enable-background="new -320 521.89 640 640" xml:space="preserve">
<path d="M0.027,521.89c-86.964,0-97.821,0.4-131.966,1.921c-34.092,1.601-57.3,6.962-77.707,14.885
	c-21.047,8.163-38.92,19.127-56.713,36.92c-17.793,17.793-28.783,35.639-36.92,56.713c-7.923,20.407-13.311,43.615-14.885,77.707
	c-1.601,34.145-1.921,45.002-1.921,131.966s0.4,97.821,1.921,131.966c1.601,34.065,6.962,57.3,14.885,77.707
	c8.163,21.021,19.127,38.92,36.92,56.713c17.793,17.766,35.639,28.783,56.713,36.92c20.434,7.896,43.642,13.311,77.707,14.885
	c34.145,1.6,45.002,1.921,131.966,1.921s97.821-0.4,131.966-1.921c34.065-1.601,57.3-6.989,77.707-14.885
	c21.021-8.163,38.92-19.153,56.713-36.92c17.766-17.793,28.783-35.613,36.92-56.713c7.896-20.407,13.311-43.642,14.885-77.707
	c1.601-34.145,1.921-45.002,1.921-131.966s-0.4-97.821-1.921-131.966c-1.601-34.065-6.989-57.327-14.885-77.707
	c-8.163-21.047-19.153-38.92-36.92-56.713c-17.793-17.793-35.612-28.783-56.713-36.92c-20.407-7.923-43.642-13.311-77.707-14.885
	C97.848,522.21,86.99,521.89,0.027,521.89z M0.027,579.51c85.443,0,95.634,0.427,129.379,1.894
	c31.211,1.467,48.15,6.642,59.407,11.07c14.992,5.789,25.609,12.724,36.866,23.902c11.177,11.204,18.113,21.848,23.902,36.84
	c4.375,11.257,9.603,28.197,11.017,59.407c1.521,33.772,1.867,43.909,1.867,129.379s-0.4,95.634-1.974,129.379
	c-1.627,31.211-6.829,48.15-11.231,59.407c-5.975,14.992-12.778,25.609-23.982,36.866c-11.177,11.177-21.981,18.113-36.813,23.902
	c-11.204,4.375-28.41,9.603-59.621,11.017c-33.985,1.521-43.989,1.867-129.619,1.867c-85.657,0-95.66-0.4-129.619-1.974
	c-31.238-1.627-48.444-6.829-59.648-11.231c-15.179-5.975-25.609-12.778-36.786-23.982c-11.231-11.177-18.406-21.981-24.008-36.813
	c-4.402-11.204-9.577-28.41-11.204-59.621c-1.2-33.612-1.627-43.989-1.627-129.219c0-85.257,0.427-95.66,1.627-129.672
	c1.627-31.211,6.802-48.39,11.204-59.594c5.602-15.205,12.778-25.609,24.008-36.84c11.177-11.177,21.608-18.38,36.786-23.955
	c11.204-4.428,28.036-9.63,59.247-11.231c34.012-1.2,44.015-1.601,129.619-1.601C-1.174,578.71,0.027,579.51,0.027,579.51z
	 M0.027,677.625c-90.832,0-164.378,73.626-164.378,164.378c0,90.832,73.626,164.378,164.378,164.378
	c90.832,0,164.378-73.626,164.378-164.378C164.404,751.17,90.778,677.625,0.027,677.625L0.027,677.625z M0.027,948.706
	c-58.954,0-106.704-47.75-106.704-106.704c0-58.954,47.75-106.704,106.704-106.704s106.704,47.75,106.704,106.704
	C106.731,900.956,58.981,948.706,0.027,948.706z M209.327,671.142c0,21.207-17.233,38.413-38.413,38.413
	c-21.207,0-38.413-17.233-38.413-38.413s17.233-38.387,38.413-38.387C192.067,632.729,209.327,649.962,209.327,671.142z"/>
</svg>
