<?xml version="1.0" encoding="utf-8"?>
<!-- Generator: Adobe Illustrator 21.1.0, SVG Export Plug-In . SVG Version: 6.00 Build 0)  -->
<svg version="1.1" id="Layer_1" xmlns="http://www.w3.org/2000/svg" xmlns:xlink="http://www.w3.org/1999/xlink" x="0px" y="0px"
	 viewBox="0 0 512 512" style="enable-background:new 0 0 512 512;" xml:space="preserve">
<g>
	<path d="M145,129c17.7,0,32-14.3,32-32V65c0-17.7-14.3-32-32-32s-32,14.3-32,32v32C113,114.7,127.3,129,145,129z"/>
	<path d="M369,129c17.7,0,32-14.3,32-32V65c0-17.7-14.3-32-32-32s-32,14.3-32,32v32C337,114.7,351.3,129,369,129z"/>
	<path d="M473,65h-56v40.7c0,22.5-23.2,39.3-47.2,39.3S321,128.2,321,105.7V65H193v40.7c0,22.5-24,39.3-48,39.3s-48-16.8-48-39.3V65
		H41c-4.4,0-8,3.6-8,8v400c0,4.4,3.6,8,8,8h432c4.4,0,8-3.6,8-8V73C481,68.6,477.4,65,473,65z M433,433H81V177h352V433z"/>
</g>
</svg>
