<?xml version="1.0" encoding="utf-8"?>
<!-- Generator: Adobe Illustrator 21.1.0, SVG Export Plug-In . SVG Version: 6.00 Build 0)  -->
<svg version="1.1" id="Layer_1" xmlns="http://www.w3.org/2000/svg" xmlns:xlink="http://www.w3.org/1999/xlink" x="0px" y="0px"
	 viewBox="0 0 512 512" style="enable-background:new 0 0 512 512;" xml:space="preserve">
<style type="text/css">
	.st0{fill:none;}
</style>
<g>
	<rect x="80" y="192" class="st0" width="352" height="240"/>
	<polygon class="st0" points="352,144 336,144 336,112 176,112 176,144 160,144 160,112 80,112 80,176 432,176 432,112 352,112 	"/>
	<path d="M352,96V64h-16v32H176V64h-16v32H64v352h384V96H352z M432,432H80V192h352V432z M432,176H80v-64h80v32h16v-32h160v32h16v-32
		h80V176z"/>
</g>
</svg>
