<?xml version="1.0" encoding="utf-8"?>
<!-- Generator: Adobe Illustrator 18.1.1, SVG Export Plug-In . SVG Version: 6.00 Build 0)  -->
<svg version="1.1" id="icon-area" xmlns="http://www.w3.org/2000/svg" xmlns:xlink="http://www.w3.org/1999/xlink" x="0px" y="0px"
	 viewBox="-320 521.89 640 640" enable-background="new -320 521.89 640 640" xml:space="preserve">
<g>
	<path d="M-145.211,521.89h-116.526c-32.19,0-58.263,26.037-58.263,58.184v116.369c0,32.147,26.073,58.184,58.263,58.184h116.526
		c32.19,0,58.263-26.037,58.263-58.184V580.074C-86.948,547.927-113.021,521.89-145.211,521.89z M-145.211,696.443h-116.526V580.074
		h116.526V696.443z M-174.343,667.351h-58.263v-58.184h58.263V667.351z"/>
	<path d="M-145.211,929.18h-116.526c-32.19,0-58.263,26.037-58.263,58.184v116.369c0,32.147,26.073,58.184,58.263,58.184h116.526
		c32.19,0,58.263-26.037,58.263-58.184V987.364C-86.948,955.217-113.021,929.18-145.211,929.18z M-145.211,1103.733h-116.526
		V987.364h116.526V1103.733z M-174.343,1074.641h-58.263v-58.184h58.263V1074.641z"/>
	<path d="M262.63,521.89H146.104c-32.19,0-58.263,26.037-58.263,58.184v116.369c0,32.147,26.073,58.184,58.263,58.184H262.63
		c32.19,0,58.263-26.037,58.263-58.184V580.074C320.893,547.927,294.82,521.89,262.63,521.89z M262.63,696.443H146.104V580.074
		H262.63V696.443z M233.498,667.351h-58.263v-58.184h58.263V667.351z"/>
	<rect x="-28.685" y="580.074" width="58.263" height="58.184"/>
	<rect x="-28.685" y="696.443" width="58.263" height="58.184"/>
	<rect x="-28.685" y="812.811" width="58.263" height="58.184"/>
	<rect x="-145.211" y="812.811" width="58.263" height="58.184"/>
	<rect x="-261.737" y="812.811" width="58.263" height="58.184"/>
	<rect x="87.841" y="812.811" width="58.263" height="58.184"/>
	<rect x="204.367" y="812.811" width="58.263" height="58.184"/>
	<rect x="29.578" y="870.996" width="58.263" height="58.184"/>
	<rect x="146.104" y="870.996" width="58.263" height="58.184"/>
	<rect x="87.841" y="929.18" width="58.263" height="58.184"/>
	<rect x="-28.685" y="929.18" width="58.263" height="58.184"/>
	<rect x="29.578" y="987.364" width="58.263" height="58.184"/>
	<rect x="87.841" y="1045.549" width="58.263" height="58.184"/>
	<rect x="29.578" y="1103.733" width="58.263" height="58.184"/>
	<rect x="262.63" y="870.996" width="58.263" height="58.184"/>
	<rect x="262.63" y="987.364" width="58.263" height="58.184"/>
	<rect x="146.104" y="987.364" width="58.263" height="58.184"/>
	<rect x="146.104" y="1103.733" width="58.263" height="58.184"/>
	<rect x="204.367" y="1045.549" width="58.263" height="58.184"/>
	<rect x="204.367" y="929.18" width="58.263" height="58.184"/>
	<rect x="-28.685" y="1045.549" width="58.263" height="58.184"/>
</g>
</svg>
