<?xml version="1.0" encoding="utf-8"?>
<!-- Generator: Adobe Illustrator 18.1.1, SVG Export Plug-In . SVG Version: 6.00 Build 0)  -->
<svg version="1.1" id="icon-area" xmlns="http://www.w3.org/2000/svg" xmlns:xlink="http://www.w3.org/1999/xlink" x="0px" y="0px"
	 viewBox="722.9 0 368.1 367" enable-background="new 722.9 0 368.1 367" xml:space="preserve">
<g>
	<path fill="none" d="M1007.4,218.5c-6.2-7.3-15.5-15.3-18.4-19.2c-4-5.1-2.8-7.3,0-11.9c-0.1,0,32.4-45.8,35.8-61.3
		c1.7-5.7,0-9.8-8.1-9.8H990c-6.8,0-9.9,3.6-11.6,7.5c0,0-13.6,33.1-32.8,54.6c-6.2,6.2-9,8.2-12.4,8.2c-1.7,0-4.2-2-4.2-7.6v-52.9
		c0-6.8-2-9.8-7.6-9.8h-41.9c-4.2,0-6.8,3.1-6.8,6.1c0,6.4,9.6,7.9,10.6,26v39.3c0,8.6-1.6,10.2-4.9,10.2c-9,0-31-33.2-44.1-71.2
		c-2.6-7.4-5.1-10.4-11.9-10.4h-26.7c-7.6,0-9.1,3.6-9.1,7.5c0,7.1,9,42.1,42.1,88.5c22,31.7,53.1,48.8,81.4,48.8
		c17,0,19.1-3.8,19.1-10.4v-23.9c0-7.6,1.6-9.1,7-9.1c4,0,10.7,2,26.6,17.2c18.1,18.1,21.1,26.2,31.2,26.2h26.7
		c7.6,0,11.4-3.8,9.2-11.3C1027.5,242.3,1018.9,231.4,1007.4,218.5z"/>
	<path d="M963.4,0c-103.1,0-9.8,0-112.9,0c-103,0-127.6,24.5-127.6,127.3c0,57.3,0,9.8,0,112.5S747.4,367,850.5,367s9.8,0,112.9,0
		S1091,342.4,1091,239.7s0-9.8,0-112.5S1066.5,0,963.4,0z M1020.7,261.1H994c-10.1,0-13.1-8.1-31.2-26.2
		c-15.9-15.2-22.6-17.2-26.6-17.2c-5.4,0-7,1.5-7,9.1v23.9c0,6.6-2.1,10.4-19.1,10.4c-28.3,0-59.4-17.1-81.4-48.8
		c-33.1-46.4-42.1-81.4-42.1-88.5c0-3.9,1.5-7.5,9.1-7.5h26.7c6.8,0,9.3,3,11.9,10.4c13.1,38,35.1,71.2,44.1,71.2
		c3.3,0,4.9-1.6,4.9-10.2v-39.3c-1-18.1-10.6-19.6-10.6-26c0-3,2.6-6.1,6.8-6.1h41.9c5.6,0,7.6,3,7.6,9.8V179c0,5.6,2.5,7.6,4.2,7.6
		c3.4,0,6.2-2,12.4-8.2c19.2-21.5,32.8-54.6,32.8-54.6c1.7-3.9,4.8-7.5,11.6-7.5h26.7c8.1,0,9.8,4.1,8.1,9.8
		c-3.4,15.5-35.9,61.3-35.8,61.3c-2.8,4.6-4,6.8,0,11.9c2.9,3.9,12.2,11.9,18.4,19.2c11.5,12.9,20.1,23.8,22.5,31.3
		C1032.1,257.3,1028.3,261.1,1020.7,261.1z"/>
</g>
</svg>
