<?xml version="1.0" encoding="utf-8"?>
<!-- Generator: Adobe Illustrator 18.1.1, SVG Export Plug-In . SVG Version: 6.00 Build 0)  -->
<svg version="1.1" id="icon-area" xmlns="http://www.w3.org/2000/svg" xmlns:xlink="http://www.w3.org/1999/xlink" x="0px" y="0px"
	 viewBox="240.9 0 367.1 367" enable-background="new 240.9 0 367.1 367" xml:space="preserve">
<path d="M608.2,104.1c0,0-3.6-27.3-14.7-39.3C579.4,49,563.6,48.9,556.3,48c-51.9-4-129.8-4-129.8-4h-0.2c0,0-77.9,0-129.8,4
	c-7.2,0.9-23,1-37.2,16.7c-11.1,12-14.7,39.3-14.7,39.3s-3.7,32-3.7,64v30c0,32,3.7,64.1,3.7,64.1s3.6,27.3,14.7,39.3
	c14.1,15.7,32.6,15.3,40.9,16.9c29.7,3,126.1,4,126.1,4s78-0.1,129.9-4.1c7.2-0.9,23.1-1,37.2-16.8c11.1-12,14.7-39.3,14.7-39.3
	s3.7-32,3.7-64.1v-30C611.9,136.1,608.2,104.1,608.2,104.1z M380.1,252.8V113.6l116,69.6L380.1,252.8z"/>
</svg>
