<?xml version="1.0" encoding="utf-8"?>
<!-- Generator: Adobe Illustrator 18.1.1, SVG Export Plug-In . SVG Version: 6.00 Build 0)  -->
<svg version="1.1" id="Слой_2" xmlns="http://www.w3.org/2000/svg" xmlns:xlink="http://www.w3.org/1999/xlink" x="0px" y="0px"
	 viewBox="0 0 126.7 124.2" enable-background="new 0 0 126.7 124.2" xml:space="preserve">
<g>
	<defs>
		<rect id="SVGID_1_" x="-82.3" y="-46.9" width="293.4" height="171.2"/>
	</defs>
	<clipPath id="SVGID_2_">
		<use xlink:href="#SVGID_1_"  overflow="visible"/>
	</clipPath>
	<g clip-path="url(#SVGID_2_)">
		<path fill="#2A398D" d="M126.5,131.8c0,18.1-7,34.5-18.3,46.4c-11.3,11.9-26.9,19.2-44.2,19.2c-17.2,0-32.9-7.4-44.2-19.2
			C8.6,166.3,1.6,149.9,1.6,131.8c0-22.6,4.3-27.5,9-33c5.7-6.6,12.1-14.1,12.1-58c0-11.2,4.6-21.4,12.1-28.8
			C42.4,4.6,52.7,0,64.1,0c11.4,0,21.7,4.6,29.2,11.9c7.5,7.4,12.1,17.6,12.1,28.8c0,43.9,6.4,51.4,12.1,58
			C122.2,104.3,126.5,109.2,126.5,131.8z M106.7,176.7c10.9-11.5,17.7-27.4,17.7-45c0-21.8-4-26.5-8.5-31.7
			c-5.9-6.9-12.7-14.7-12.7-59.3c0-10.7-4.4-20.4-11.5-27.3C84.7,6.4,74.9,2,64.1,2C53.2,2,43.4,6.4,36.3,13.4
			c-7.1,7-11.5,16.7-11.5,27.3c0,44.7-6.7,52.4-12.7,59.3c-4.5,5.2-8.5,9.9-8.5,31.7c0,17.6,6.8,33.5,17.7,45
			c10.9,11.5,26,18.6,42.7,18.6C80.7,195.3,95.8,188.2,106.7,176.7z"/>
		<path fill="#2A398D" d="M64.1,12c9.2,0,17.6,3.7,23.6,9.8c6,6,9.8,14.4,9.8,23.6S93.7,62.9,87.6,69c-6,6-14.4,9.8-23.6,9.8
			c-9.2,0-17.6-3.7-23.6-9.8c-6-6-9.8-14.4-9.8-23.6s3.7-17.6,9.8-23.6C46.5,15.7,54.8,12,64.1,12z M86.2,23.2
			C80.5,17.5,72.7,14,64.1,14c-8.7,0-16.5,3.5-22.2,9.2c-5.7,5.7-9.2,13.5-9.2,22.2c0,8.7,3.5,16.5,9.2,22.2
			c5.7,5.7,13.5,9.2,22.2,9.2c8.7,0,16.5-3.5,22.2-9.2c5.7-5.7,9.2-13.5,9.2-22.2C95.4,36.7,91.9,28.9,86.2,23.2z"/>
		<path fill="#2A398D" d="M34.6,34.3c0,0,3.6,0.6,8.1,0.6c4.3,0,9.9-0.7,14.9-3.6c5-2.8,9.5-7.9,11.7-16.2l-1.5-0.4
			c-2.1,8.1-6.3,12.7-11,15.3c-4.7,2.7-10,3.4-14.2,3.4c-2.1,0-4-0.2-5.3-0.4c-0.7-0.1-1.2-0.2-1.5-0.3c-0.4-0.1-0.5-0.1-0.5-0.1
			 M90.3,27.8l-0.1,0c-0.3,0-0.9,0.1-1.9,0.1c-2.3,0-6.3-0.4-10.1-2.5c-3.8-2.1-7.5-5.8-9.3-12.8L67.4,13
			c1.9,7.3,5.9,11.5,10.1,13.7c4.1,2.3,8.3,2.6,10.8,2.6c1.4,0,2.7-0.3,2.8-0.3L90.3,27.8L90.3,27.8z"/>
		<path fill-rule="evenodd" clip-rule="evenodd" fill="#2A398D" d="M35.1,33.4c0,0,27,6.6,33.4-19C67,14.1,65.6,14,64.1,14
			c-8.7,0-16.5,3.5-22.2,9.2C39,26.1,36.7,29.5,35.1,33.4z"/>
		<path fill="#2A398D" d="M35.4,33.2c2.6,0.6,26.8,5.1,32.8-18.7c-0.6-0.1-1.3-0.2-2-0.2c-0.7,0-1.5-0.1-2.2-0.1
			c-4.2,0-8.2,0.8-11.9,2.4c-3.8,1.6-7.2,3.9-10.1,6.8C39.2,26.2,37,29.5,35.4,33.2z M68.7,14.4c-6.4,25.9-33.5,19.2-33.6,19.2
			l-0.2-0.1l0.1-0.2c1.6-3.9,3.9-7.3,6.8-10.2c2.9-2.9,6.4-5.2,10.2-6.8c3.7-1.5,7.8-2.4,12.1-2.4c0.7,0,1.5,0,2.2,0.1
			c0.7,0.1,1.5,0.1,2.2,0.2l0.2,0L68.7,14.4z"/>
		<path fill-rule="evenodd" clip-rule="evenodd" fill="#2A398D" d="M68.7,14.4c5.6,16.4,21.7,14,21.7,14c-1.2-1.9-2.6-3.6-4.2-5.2
			C81.6,18.6,75.5,15.4,68.7,14.4z"/>
		<path fill="#2A398D" d="M69,14.6c5.1,14.5,18.7,13.8,21,13.6c-0.5-0.8-1.1-1.6-1.8-2.4c-0.7-0.9-1.4-1.7-2.2-2.5
			C81.5,18.8,75.6,15.7,69,14.6z M90.4,28.6c0,0-16.2,2.4-21.9-14.1l-0.1-0.3l0.3,0c6.8,1,12.9,4.2,17.6,8.9
			c0.8,0.8,1.5,1.6,2.2,2.5c0.7,0.9,1.4,1.8,2,2.7l0.2,0.3L90.4,28.6z"/>
		<path fill="#2A398D" d="M21.6,81.1c0.1,0.1,39.9,45,85.7-0.5l1.4,1.4c-47.3,47-88.5,0.6-88.6,0.5L21.6,81.1z"/>
		<path fill-rule="evenodd" clip-rule="evenodd" fill="#2A398D" d="M34.4,146.8c-2.8-0.4-5-2.9-5-5.8c0-2.8,1.9-5.1,4.4-5.7
			c-0.3-0.7-0.5-1.5-0.5-2.4c0-3.3,2.6-5.9,5.9-5.9c1,0,2,0.3,2.8,0.7c0.9-2,3-3.4,5.4-3.4c3.3,0,5.9,2.6,5.9,5.9l0,0.6l0.6,0
			c3.3,0,5.9,2.6,5.9,5.9c0,1.1-0.3,2.2-0.9,3.1c1.8,1,3.1,2.9,3.1,5.2c0,3.3-2.6,5.9-5.9,5.9l-0.4,0l0,0.4c0,3.3-2.6,5.9-5.9,5.9
			c-2.5,0-4.7-1.6-5.5-3.9c-1.1,1.3-2.7,2.1-4.5,2.1c-3.3,0-5.9-2.6-5.9-5.9C33.8,148.5,34,147.6,34.4,146.8z M45.5,137.2
			c2.1,0,3.9,1.7,3.9,3.9c0,2.1-1.7,3.9-3.9,3.9c-2.1,0-3.9-1.7-3.9-3.9C41.6,139,43.3,137.2,45.5,137.2z"/>
		<path fill-rule="evenodd" clip-rule="evenodd" fill="#2A398D" d="M50.3,41.7c2.2,0.3,3.9,2.6,3.9,5.4c0,3-2,5.4-4.4,5.4
			S45.3,50,45.3,47c0-1.5,0.5-2.9,1.3-3.9v-4.4h1.1v3.4c0.5-0.3,1-0.5,1.5-0.5v-3.7h1.1V41.7z"/>
		<path fill="#2A398D" d="M50.5,41.5c1.1,0.2,2.1,0.9,2.8,1.8c0.7,1,1.2,2.3,1.2,3.7c0,1.5-0.5,2.9-1.3,3.9c-0.8,1-2,1.7-3.3,1.7
			c-1.3,0-2.5-0.6-3.3-1.7c-0.8-1-1.3-2.4-1.3-3.9c0-0.8,0.1-1.5,0.4-2.2c0.2-0.7,0.6-1.3,1-1.8v-4.3v-0.2h0.2h1.1h0.2v0.2v3.1
			l0.4-0.2l0.6-0.2v-3.6v-0.2h0.2h1.1h0.2v0.2V41.5z M52.9,43.6c-0.7-0.9-1.6-1.5-2.7-1.7l-0.2,0v-0.2v-3.5h-0.7v3.5v0.2l-0.2,0
			c-0.2,0-0.5,0.1-0.7,0.2l-0.7,0.3l-0.3,0.2v-0.4V39h-0.7v4.2v0.1l0,0.1c-0.4,0.5-0.7,1.1-1,1.7c-0.2,0.6-0.3,1.3-0.3,2
			c0,1.4,0.5,2.7,1.3,3.7c0.8,0.9,1.8,1.5,3,1.5c1.2,0,2.2-0.6,3-1.5c0.8-0.9,1.3-2.2,1.3-3.7C54,45.7,53.6,44.5,52.9,43.6
			L52.9,43.6z"/>
		<path fill-rule="evenodd" clip-rule="evenodd" fill="#2A398D" d="M77.3,41.7c-2.2,0.3-3.9,2.6-3.9,5.4c0,3,2,5.4,4.4,5.4
			c2.5,0,4.4-2.4,4.4-5.4c0-1.5-0.5-2.9-1.3-3.9v-4.4h-1.1v3.4c-0.5-0.3-1-0.5-1.5-0.5v-3.7h-1.1V41.7z"/>
		<path fill="#2A398D" d="M77.3,41.9c-1.1,0.2-2,0.8-2.7,1.7v0c-0.7,0.9-1.1,2.1-1.1,3.5c0,1.4,0.5,2.7,1.3,3.7
			c0.8,0.9,1.8,1.5,3,1.5c1.2,0,2.2-0.6,3-1.5c0.8-0.9,1.3-2.2,1.3-3.7c0-0.7-0.1-1.4-0.3-2c-0.2-0.6-0.6-1.2-1-1.7l0-0.1v-0.1V39
			H80v3.2v0.4l-0.3-0.2L79,42c-0.2-0.1-0.5-0.1-0.7-0.2l-0.2,0v-0.2v-3.5h-0.7v3.5v0.2L77.3,41.9z M74.3,43.3c0.7-1,1.7-1.6,2.8-1.8
			v-3.6v-0.2h0.2h1.1h0.2v0.2v3.6l0.6,0.2l0.4,0.2v-3.1v-0.2h0.2h1.1h0.2v0.2v4.3c0.4,0.5,0.8,1.1,1,1.8c0.2,0.7,0.4,1.4,0.4,2.2
			c0,1.5-0.5,2.9-1.3,3.9c-0.8,1-2,1.7-3.3,1.7c-1.3,0-2.5-0.6-3.3-1.7c-0.8-1-1.3-2.4-1.3-3.9C73.1,45.6,73.6,44.3,74.3,43.3z"/>
		<path fill-rule="evenodd" clip-rule="evenodd" fill="#2A398D" d="M90.8,128.2c-1.8-0.3-3.3-1.9-3.3-3.8c0-1.8,1.2-3.3,2.9-3.7
			c-0.2-0.5-0.3-1-0.3-1.5c0-2.1,1.7-3.8,3.8-3.8c0.7,0,1.3,0.2,1.8,0.5c0.6-1.3,1.9-2.2,3.5-2.2c2.1,0,3.8,1.7,3.8,3.8l0,0.4l0.4,0
			c2.1,0,3.8,1.7,3.8,3.8c0,0.7-0.2,1.4-0.6,2c1.2,0.6,2,1.9,2,3.4c0,2.1-1.7,3.8-3.8,3.8l-0.3,0l0,0.3c0,2.1-1.7,3.8-3.8,3.8
			c-1.7,0-3.1-1-3.6-2.5c-0.7,0.8-1.8,1.4-2.9,1.4c-2.1,0-3.8-1.7-3.8-3.8C90.4,129.3,90.6,128.7,90.8,128.2z M98,122
			c1.4,0,2.5,1.1,2.5,2.5c0,1.4-1.1,2.5-2.5,2.5c-1.4,0-2.5-1.1-2.5-2.5C95.5,123.1,96.6,122,98,122z"/>
		<path fill-rule="evenodd" clip-rule="evenodd" fill="#2A398D" d="M78,165.4c-1.9-0.3-3.3-1.9-3.3-3.8c0-1.8,1.2-3.3,2.9-3.8
			c-0.2-0.5-0.3-1-0.3-1.6c0-2.1,1.7-3.9,3.9-3.9c0.7,0,1.3,0.2,1.8,0.5c0.6-1.3,2-2.3,3.5-2.3c2.1,0,3.9,1.7,3.9,3.9l0,0.4l0.4,0
			c2.1,0,3.9,1.7,3.9,3.9c0,0.7-0.2,1.4-0.6,2c1.2,0.7,2,1.9,2,3.4c0,2.1-1.7,3.9-3.9,3.9l-0.3,0l0,0.3c0,2.1-1.7,3.9-3.9,3.9
			c-1.7,0-3.1-1.1-3.6-2.5c-0.7,0.8-1.8,1.4-3,1.4c-2.1,0-3.9-1.7-3.9-3.9C77.6,166.5,77.7,165.9,78,165.4z M85.2,159.1
			c1.4,0,2.5,1.1,2.5,2.5c0,1.4-1.1,2.5-2.5,2.5c-1.4,0-2.5-1.1-2.5-2.5C82.7,160.2,83.8,159.1,85.2,159.1z"/>
	</g>
</g>
</svg>
