<?xml version="1.0" encoding="utf-8"?><svg width="520" height="416" viewBox="0 0 520 416" xmlns="http://www.w3.org/2000/svg" xmlns:xlink="http://www.w3.org/1999/xlink"><view id="3dprinter" viewBox="104 0 104 104"/><svg id="aСлой_1" viewBox="-200 -200 1040 1040" width="104" height="104" x="104" xmlns="http://www.w3.org/2000/svg"><style>.ast0{fill:#fff}</style><path d="M0-1v641h640V-1H0zm558 588.5h-95.5v-47.1H558v47.1zm1-94.6H84.8V65.6H559v427.3z"/><path d="M187.9 355.9l121.4 56.4v-161l-121.4-56.4zM320 132.5l-126 51.8 124.8 58.4 120.6-61.6zM447 189.9l-120.7 62.3v163.1l121-81.1z"/><circle class="ast0" cx="111.7" cy="568" r="26.7"/></svg><view id="close" viewBox="312 104 104 104"/><svg viewBox="-200 -200 1040 1040" width="104" height="104" x="312" y="104" xmlns="http://www.w3.org/2000/svg"><path d="M391.2 320L624.7 88.6c19.6-19.5 20.5-51.9 2-72.5-18.6-20.6-49.5-21.5-69.1-2L320 249.4 82.5 14C62.9-5.5 31.9-4.5 13.4 16c-18.6 20.6-17.7 53.1 2 72.5L248.8 320 15.3 551.4c-19.6 19.5-20.5 51.9-2 72.5 18.6 20.6 49.5 21.5 69.1 2L320 390.6 557.5 626c19.6 19.5 50.6 18.5 69.1-2s17.7-53.1-2-72.5L391.2 320z"/></svg><view id="close2" viewBox="0 104 104 104"/><svg viewBox="-200 -200 1040 1040" width="104" height="104" y="104" xmlns="http://www.w3.org/2000/svg"><path d="M614.1 196.7c-24.2-57.3-64.7-106-115.6-140.4C473.1 39.1 445 25.5 415 16.2S353.1 1.8 320.1 1.8c-44 0-86 8.9-124.2 25.1-57.3 24.2-106 64.7-140.4 115.6C38.3 167.9 24.7 196 15.4 226 6 256 1 287.9 1 320.9c0 44 8.9 86 25.1 124.2 24.2 57.3 64.7 106 115.6 140.4 25.5 17.2 53.6 30.8 83.5 40.2 30 9.3 61.9 14.4 94.9 14.3 44 0 86-8.9 124.2-25.1 57.3-24.2 106-64.7 140.4-115.6 17.2-25.5 30.8-53.6 40.2-83.5 9.3-30 14.4-61.9 14.3-94.9 0-44-8.9-86-25.1-124.2zm-49.4 227.5c-20.1 47.6-53.8 88.2-96.2 116.8-21.2 14.3-44.5 25.6-69.4 33.4-24.9 7.7-51.4 11.9-78.9 11.9-36.7 0-71.6-7.4-103.3-20.8-47.6-20.1-88.2-53.8-116.8-96.2-14.3-21.2-25.6-44.5-33.4-69.4C59 375 54.8 348.5 54.8 321c0-36.7 7.4-71.6 20.8-103.3 20.1-47.6 53.8-88.2 96.2-116.8 21.2-14.3 44.5-25.6 69.4-33.4 24.9-7.7 51.4-11.9 78.9-11.9 36.7 0 71.6 7.4 103.3 20.8 47.6 20.1 88.2 53.8 116.8 96.2 14.3 21.2 25.6 44.5 33.4 69.4 7.7 24.9 11.9 51.4 11.9 78.9 0 36.7-7.4 71.6-20.8 103.3z"/><path d="M460 181.6c-8.4-9.4-22.5-9.8-31.5-.9L320.4 287.9 212.2 180.7c-8.9-8.9-23-8.4-31.5.9-8.4 9.4-8 24.2.9 33L288 320 181.7 425.4c-8.9 8.9-9.3 23.6-.9 33 8.4 9.4 22.5 9.8 31.5.9l108.2-107.2 108.2 107.2c8.9 8.9 23 8.4 31.5-.9 8.4-9.4 8-24.2-.9-33L352.8 320l106.3-105.4c9-8.8 9.4-23.6.9-33z"/></svg><view id="download-cloud" viewBox="104 104 104 104"/><svg viewBox="-200 -200 1040 1040" width="104" height="104" x="104" y="104" xmlns="http://www.w3.org/2000/svg"><path d="M229.2 510.8l-16.6 17.4L319 640l106.4-111.8-16.5-17.4-78.2 82V223.9h-23.4v368.9z"/><path d="M525.2 182.2c0-1.8.3-3.5.3-5.4C525.5 79.1 449.9 0 358.6 0 292.7 0 236 41.2 209.4 100.6c-11.6-6.1-24.4-9.7-38.3-9.7-42.3 0-77.3 35.8-84.1 78.9C36.8 188.3.5 236.6.5 296.6c0 75.6 57.3 137.2 128 137.2h130.7v-24.6H129.6c-58.4 0-106-51.1-106-113.4 0-48.3 28.9-88.5 71.7-104.2l12-4.3 2.1-13.4c5.2-32.8 31.6-59.7 62.7-59.7 9.8 0 19.6 2.5 28.4 7.2l19.3 10.3 9.3-20.9c23.7-52.9 74.4-87.1 129.1-87.1 79 0 144.1 65.8 144.1 150.2 0 20.1-.3 30.9-.3 30.9l21.7.2c52.4.8 93.7 46.2 93.7 102.2 0 55.8-42.6 101.7-95 102l-4.6.2H379.2V434h144.3c64.3 0 117-57.2 117-126.3 0-69.2-50.6-125.4-115.3-125.5"/></svg><view id="envelope-out" viewBox="208 0 104 104"/><svg viewBox="-561 156.9 1040 1040" width="104" height="104" x="208" xmlns="http://www.w3.org/2000/svg"><path d="M280 473.4c0-13.8-11-25-24.5-25h-592c-13.5 0-24.5 11.2-24.5 25v401.8c-.2 1.1-.2 2.3-.2 3.5 0 13.8 11 25 24.5 25h589c.5 0 1.1 0 1.6-.1.5 0 1.1.1 1.6.1 13.5 0 24.5-11.2 24.5-25V473.9v-.3-.2zm-49 62.3L-41 682.4l-271-146.2v-37.7h543v37.2zm-543 57l259.4 140c.1 0 .1.1.2.1h.1c.3.2.7.3 1 .5.1.1.3.1.4.2l.6.3c.2.1.5.2.7.3.1 0 .2.1.4.1l.9.3c.1 0 .1 0 .2.1.3.1.7.2 1 .3h.1c.3.1.7.2 1 .2h.1c.3.1.7.1 1 .2h.2c.3 0 .6.1 1 .1h.3c.3 0 .6.1.8.1H-39.3c.3 0 .6 0 .8-.1h.3c.3 0 .6-.1 1-.1h.2c.3-.1.7-.1 1-.2h.1c.3-.1.7-.2 1-.2h.1c.3-.1.7-.2 1-.3.1 0 .1 0 .2-.1l.9-.3c.1 0 .2-.1.4-.1.2-.1.5-.2.7-.3l.6-.3c.1-.1.3-.1.4-.2.3-.2.7-.3 1-.5h.1c.1 0 .1-.1.2-.1L231 592.2v261.5h-543v-261z"/></svg><view id="exclamation" viewBox="208 104 104 104"/><svg viewBox="-520 321.89 1040 1040" width="104" height="104" x="208" y="104" xmlns="http://www.w3.org/2000/svg"><ellipse cx="-1.013" cy="1093.466" rx="68.497" ry="68.449"/><path d="M86.088 608.157c0-47.644-38.969-86.267-87.04-86.267s-87.04 38.623-87.04 86.267c0 .963.022 1.921.053 2.876h-.053l18.457 302.699h.006c2.022 35.696 31.859 64.027 68.379 64.027s66.359-28.331 68.379-64.027h.007l18.851-302.699h-.053c.032-.955.054-1.912.054-2.876z"/></svg><view id="gear" viewBox="0 208 104 103.99"/><svg viewBox="-278.56 19.34 1755.33 1755.13" width="104" height="103.99" y="208" xmlns="http://www.w3.org/2000/svg"><path d="M1050.1 896.9c0-59.1 37-109.5 89.1-129.6-13.7-57.5-36.4-111.7-66.5-160.7-17.9 7.9-37.3 12-56.5 12-35.4 0-71-13.5-98-40.7-41.9-41.8-51.3-103.6-28.7-154.6-49.1-30-103.3-52.8-160.8-66.5C708.7 409 658.2 446 599 446c-59.1 0-109.7-37-129.6-89.1-57.5 13.8-111.7 36.5-160.6 66.7 22.6 51 13.2 112.7-28.7 154.6-27.2 27-62.6 40.7-98 40.7-19.2 0-38.5-4-56.5-12C95.6 656 72.8 710 59.1 767.5c52.1 20.1 89.1 70.4 89.1 129.6 0 59.1-37 109.5-88.9 129.4C73 1084 95.6 1138 125.8 1187.2c17.9-7.9 37.1-12 56.4-12 35.4 0 71 13.5 98 40.7 41.7 41.7 51.3 103.4 28.7 154.4 49.1 30 103.1 52.8 160.6 66.7 20.1-52.1 70.4-88.9 129.4-88.9s109.5 37 129.4 88.9c57.5-13.7 111.7-36.4 160.6-66.7-22.6-51-13-112.6 28.7-154.4 27-27.2 62.6-40.7 98-40.7 19.2 0 38.5 4.1 56.4 12 30.2-49.1 52.8-103.1 66.7-160.7-51.7-20.1-88.6-70.5-88.6-129.6zm-448.6 224.6c-124.5 0-224.9-100.9-224.9-224.9s100.4-225 224.9-225 224.9 100.9 224.9 224.9c.2 124.1-100.2 225-224.9 225z"/></svg><view id="github" viewBox="312 0 104 104"/><svg viewBox="-520 321.89 1040 1040" width="104" height="104" x="312" xmlns="http://www.w3.org/2000/svg"><path d="M.513 528.89C-176.57 528.89-320 672.4-320 849.403c0 141.64 91.827 261.752 219.151 304.087 16.026 3.018 21.902-6.891 21.902-15.411 0-7.612-.267-27.778-.401-54.487-89.156 19.338-107.959-43.002-107.959-43.002-14.583-36.993-35.657-46.875-35.657-46.875-29.033-19.872 2.244-19.471 2.244-19.471 32.185 2.244 49.092 33.013 49.092 33.013 28.579 49.012 75.027 34.856 93.349 26.656 2.885-20.726 11.138-34.856 20.299-42.869-71.181-8.013-145.994-35.577-145.994-158.387 0-34.989 12.42-63.568 32.986-86.004-3.606-8.093-14.423-40.678 2.804-84.829 0 0 26.843-8.6 88.141 32.853 25.641-7.131 52.885-10.657 80.128-10.817 27.244.16 54.487 3.686 80.128 10.817 60.897-41.453 87.74-32.853 87.74-32.853 17.228 44.151 6.41 76.736 3.205 84.829 20.433 22.436 32.853 51.015 32.853 86.004 0 123.13-74.92 150.24-146.234 158.12 11.218 9.615 21.635 29.274 21.635 59.295 0 42.895-.401 77.351-.401 87.767 0 8.413 5.609 18.429 22.035 15.224 128.232-42.041 219.979-162.233 219.979-303.659C321.026 672.4 177.516 528.89.513 528.89"/></svg><view id="grid" viewBox="0 0 104 104"/><svg viewBox="-561 156.9 1040 1040" width="104" height="104" xmlns="http://www.w3.org/2000/svg"><circle cx="-293.3" cy="676.9" r="67.7"/><circle cx="-293.3" cy="929.2" r="67.7"/><circle cx="-293.3" cy="424.6" r="67.7"/><circle cx="-41" cy="676.9" r="67.7"/><circle cx="-41" cy="929.2" r="67.7"/><circle cx="-41" cy="424.6" r="67.7"/><circle cx="211.3" cy="676.9" r="67.7"/><circle cx="211.3" cy="929.2" r="67.7"/><circle cx="211.3" cy="424.6" r="67.7"/></svg><view id="heart" viewBox="0 311.99 104 104"/><svg viewBox="-520 321.89 1040 1040" width="104" height="104" y="311.99" xmlns="http://www.w3.org/2000/svg"><path d="M267.289 594.747c-62.1-64.938-162.948-64.938-225.032 0L-.013 638.71l-42.27-44.115c-62.237-64.94-162.917-64.94-225.017 0-69.938 72.96-69.938 191.421 0 264.38L-.013 1138.321 267.289 859.13c69.953-72.96 69.953-191.421 0-264.383"/></svg><view id="heart-out" viewBox="104 311.99 104 104"/><svg viewBox="-520 321.89 1040 1040" width="104" height="104" x="104" y="311.99" xmlns="http://www.w3.org/2000/svg"><path d="M144 521.89c-56.016 0-108.8 27.913-144 73.249-35.2-45.336-88-73.249-144.015-73.249-99.2 0-175.985 83.714-175.985 191.829 0 132.529 108.785 238.911 273.584 402.807L0 1161.89l46.4-45.364C211.2 952.613 320 846.232 320 713.719c0-108.115-76.8-191.829-176-191.829M19.739 1070.641l-6.493 6.453L0 1090.057l-13.262-12.947-6.477-6.47c-77.569-77.114-144.554-143.747-188.846-203.312-43.015-57.848-62.185-105.23-62.185-153.61 0-38.118 12.954-73.216 36.477-98.867 23.461-25.549 55.523-39.631 90.277-39.631 40.231 0 79.969 20.284 106.323 54.247L0 677.986l37.677-48.518c26.369-33.963 66.108-54.247 106.323-54.247 34.769 0 66.831 14.083 90.277 39.631 23.538 25.65 36.477 60.749 36.477 98.867 0 48.379-19.169 95.762-62.184 153.61-44.278 59.565-111.262 126.181-188.831 203.312"/></svg><view id="home" viewBox="208 311.99 104 104"/><svg viewBox="-561 156.9 1040 1040" width="104" height="104" x="208" y="311.99" xmlns="http://www.w3.org/2000/svg"><path d="M-114.6 997.5V783.9H33v213.6h150.1V677.2H279L-40.8 356.9l-319.7 320.3h95.9v320.3z"/></svg><view id="home2" viewBox="312 311.99 104 104"/><svg viewBox="-200 -200 1040 1040" width="104" height="104" x="312" y="311.99" xmlns="http://www.w3.org/2000/svg"><path d="M320 80L53.3 293.3V640H240V426.7h160V640h186.7V293.3L320 80zm240 533.3H426.7V400H213.3v213.3H80V306.1l240-192 240 192v307.2z"/><path d="M320 0L160 128V53.3H53.3v160L0 255.8l19.2 19L320 34.1l300.8 240.6 19.2-19L320 0zM133.3 149.3L80 192V80h53.3v69.3z"/></svg><view id="instagram" viewBox="416 0 104 104"/><svg viewBox="-520 321.89 1040 1040" width="104" height="104" x="416" xmlns="http://www.w3.org/2000/svg"><path d="M.027 521.89c-86.964 0-97.821.4-131.966 1.921-34.092 1.601-57.3 6.962-77.707 14.885-21.047 8.163-38.92 19.127-56.713 36.92-17.793 17.793-28.783 35.639-36.92 56.713-7.923 20.407-13.311 43.615-14.885 77.707-1.601 34.145-1.921 45.002-1.921 131.966s.4 97.821 1.921 131.966c1.601 34.065 6.962 57.3 14.885 77.707 8.163 21.021 19.127 38.92 36.92 56.713 17.793 17.766 35.639 28.783 56.713 36.92 20.434 7.896 43.642 13.311 77.707 14.885 34.145 1.6 45.002 1.921 131.966 1.921s97.821-.4 131.966-1.921c34.065-1.601 57.3-6.989 77.707-14.885 21.021-8.163 38.92-19.153 56.713-36.92 17.766-17.793 28.783-35.613 36.92-56.713 7.896-20.407 13.311-43.642 14.885-77.707 1.601-34.145 1.921-45.002 1.921-131.966s-.4-97.821-1.921-131.966c-1.601-34.065-6.989-57.327-14.885-77.707-8.163-21.047-19.153-38.92-36.92-56.713-17.793-17.793-35.612-28.783-56.713-36.92-20.407-7.923-43.642-13.311-77.707-14.885C97.848 522.21 86.99 521.89.027 521.89zm0 57.62c85.443 0 95.634.427 129.379 1.894 31.211 1.467 48.15 6.642 59.407 11.07 14.992 5.789 25.609 12.724 36.866 23.902 11.177 11.204 18.113 21.848 23.902 36.84 4.375 11.257 9.603 28.197 11.017 59.407 1.521 33.772 1.867 43.909 1.867 129.379s-.4 95.634-1.974 129.379c-1.627 31.211-6.829 48.15-11.231 59.407-5.975 14.992-12.778 25.609-23.982 36.866-11.177 11.177-21.981 18.113-36.813 23.902-11.204 4.375-28.41 9.603-59.621 11.017-33.985 1.521-43.989 1.867-129.619 1.867-85.657 0-95.66-.4-129.619-1.974-31.238-1.627-48.444-6.829-59.648-11.231-15.179-5.975-25.609-12.778-36.786-23.982-11.231-11.177-18.406-21.981-24.008-36.813-4.402-11.204-9.577-28.41-11.204-59.621-1.2-33.612-1.627-43.989-1.627-129.219 0-85.257.427-95.66 1.627-129.672 1.627-31.211 6.802-48.39 11.204-59.594 5.602-15.205 12.778-25.609 24.008-36.84 11.177-11.177 21.608-18.38 36.786-23.955 11.204-4.428 28.036-9.63 59.247-11.231 34.012-1.2 44.015-1.601 129.619-1.601.002.003 1.203.803 1.203.803zm0 98.115c-90.832 0-164.378 73.626-164.378 164.378 0 90.832 73.626 164.378 164.378 164.378 90.832 0 164.378-73.626 164.378-164.378C164.404 751.17 90.778 677.625.027 677.625zm0 271.081c-58.954 0-106.704-47.75-106.704-106.704 0-58.954 47.75-106.704 106.704-106.704s106.704 47.75 106.704 106.704c0 58.954-47.75 106.704-106.704 106.704zm209.3-277.564c0 21.207-17.233 38.413-38.413 38.413-21.207 0-38.413-17.233-38.413-38.413s17.233-38.387 38.413-38.387c21.153-.026 38.413 17.207 38.413 38.387z"/></svg><view id="qrcode" viewBox="416 104 104 104"/><svg viewBox="-520 321.89 1040 1040" width="104" height="104" x="416" y="104" xmlns="http://www.w3.org/2000/svg"><path d="M-145.211 521.89h-116.526c-32.19 0-58.263 26.037-58.263 58.184v116.369c0 32.147 26.073 58.184 58.263 58.184h116.526c32.19 0 58.263-26.037 58.263-58.184V580.074c0-32.147-26.073-58.184-58.263-58.184zm0 174.553h-116.526V580.074h116.526v116.369zm-29.132-29.092h-58.263v-58.184h58.263v58.184zM-145.211 929.18h-116.526c-32.19 0-58.263 26.037-58.263 58.184v116.369c0 32.147 26.073 58.184 58.263 58.184h116.526c32.19 0 58.263-26.037 58.263-58.184V987.364c0-32.147-26.073-58.184-58.263-58.184zm0 174.553h-116.526V987.364h116.526v116.369zm-29.132-29.092h-58.263v-58.184h58.263v58.184zM262.63 521.89H146.104c-32.19 0-58.263 26.037-58.263 58.184v116.369c0 32.147 26.073 58.184 58.263 58.184H262.63c32.19 0 58.263-26.037 58.263-58.184V580.074c0-32.147-26.073-58.184-58.263-58.184zm0 174.553H146.104V580.074H262.63v116.369zm-29.132-29.092h-58.263v-58.184h58.263v58.184zM-28.685 580.074h58.263v58.184h-58.263zM-28.685 696.443h58.263v58.184h-58.263zM-28.685 812.811h58.263v58.184h-58.263zM-145.211 812.811h58.263v58.184h-58.263zM-261.737 812.811h58.263v58.184h-58.263zM87.841 812.811h58.263v58.184H87.841zM204.367 812.811h58.263v58.184h-58.263zM29.578 870.996h58.263v58.184H29.578zM146.104 870.996h58.263v58.184h-58.263zM87.841 929.18h58.263v58.184H87.841zM-28.685 929.18h58.263v58.184h-58.263zM29.578 987.364h58.263v58.184H29.578zM87.841 1045.549h58.263v58.184H87.841zM29.578 1103.733h58.263v58.184H29.578zM262.63 870.996h58.263v58.184H262.63zM262.63 987.364h58.263v58.184H262.63zM146.104 987.364h58.263v58.184h-58.263zM146.104 1103.733h58.263v58.184h-58.263zM204.367 1045.549h58.263v58.184h-58.263zM204.367 929.18h58.263v58.184h-58.263zM-28.685 1045.549h58.263v58.184h-58.263z"/></svg><view id="telephone" viewBox="416 208 104 104"/><svg viewBox="-561 156.9 1040 1040" width="104" height="104" x="416" y="208" xmlns="http://www.w3.org/2000/svg"><path d="M243.4 801.3c-44.4 0-87.1-7.1-126.2-19.5-12.5-3.6-26.7-1.8-35.6 8.9L3.5 868.9c-101.3-51.5-183.1-133.3-234.7-234.7L-153 556c8.9-8.9 12.4-23.1 8.9-35.5-14.2-40.9-21.3-83.6-21.3-128 0-19.5-16-35.6-35.5-35.6h-124.5c-19.6 0-35.5 16-35.5 35.6 0 334.2 270.2 604.4 604.4 604.4 19.5 0 35.6-16 35.6-35.6V836.9c-.1-19.5-16.1-35.6-35.7-35.6"/></svg></svg>