<?xml version="1.0" encoding="utf-8"?><svg width="208" height="208" viewBox="0 0 208 208" xmlns="http://www.w3.org/2000/svg" xmlns:xlink="http://www.w3.org/1999/xlink"><view id="exclamation" viewBox="0 0 104 104"/><svg viewBox="-520 321.89 1040 1040" width="104" height="104" xmlns="http://www.w3.org/2000/svg"><ellipse cx="-1.013" cy="1093.466" rx="68.497" ry="68.449"/><path d="M86.088 608.157c0-47.644-38.969-86.267-87.04-86.267s-87.04 38.623-87.04 86.267c0 .963.022 1.921.053 2.876h-.053l18.457 302.699h.006c2.022 35.696 31.859 64.027 68.379 64.027s66.359-28.331 68.379-64.027h.007l18.851-302.699h-.053c.032-.955.054-1.912.054-2.876z"/></svg><view id="github" viewBox="104 0 104 104"/><svg viewBox="-520 321.89 1040 1040" width="104" height="104" x="104" xmlns="http://www.w3.org/2000/svg"><path d="M.513 528.89C-176.57 528.89-320 672.4-320 849.403c0 141.64 91.827 261.752 219.151 304.087 16.026 3.018 21.902-6.891 21.902-15.411 0-7.612-.267-27.778-.401-54.487-89.156 19.338-107.959-43.002-107.959-43.002-14.583-36.993-35.657-46.875-35.657-46.875-29.033-19.872 2.244-19.471 2.244-19.471 32.185 2.244 49.092 33.013 49.092 33.013 28.579 49.012 75.027 34.856 93.349 26.656 2.885-20.726 11.138-34.856 20.299-42.869-71.181-8.013-145.994-35.577-145.994-158.387 0-34.989 12.42-63.568 32.986-86.004-3.606-8.093-14.423-40.678 2.804-84.829 0 0 26.843-8.6 88.141 32.853 25.641-7.131 52.885-10.657 80.128-10.817 27.244.16 54.487 3.686 80.128 10.817 60.897-41.453 87.74-32.853 87.74-32.853 17.228 44.151 6.41 76.736 3.205 84.829 20.433 22.436 32.853 51.015 32.853 86.004 0 123.13-74.92 150.24-146.234 158.12 11.218 9.615 21.635 29.274 21.635 59.295 0 42.895-.401 77.351-.401 87.767 0 8.413 5.609 18.429 22.035 15.224 128.232-42.041 219.979-162.233 219.979-303.659C321.026 672.4 177.516 528.89.513 528.89"/></svg><view id="heart" viewBox="0 104 104 104"/><svg viewBox="-520 321.89 1040 1040" width="104" height="104" y="104" xmlns="http://www.w3.org/2000/svg"><path d="M267.289 594.747c-62.1-64.938-162.948-64.938-225.032 0L-.013 638.71l-42.27-44.115c-62.237-64.94-162.917-64.94-225.017 0-69.938 72.96-69.938 191.421 0 264.38L-.013 1138.321 267.289 859.13c69.953-72.96 69.953-191.421 0-264.383"/></svg><view id="instagram" viewBox="104 104 104 104"/><svg viewBox="-520 321.89 1040 1040" width="104" height="104" x="104" y="104" xmlns="http://www.w3.org/2000/svg"><path d="M.027 521.89c-86.964 0-97.821.4-131.966 1.921-34.092 1.601-57.3 6.962-77.707 14.885-21.047 8.163-38.92 19.127-56.713 36.92-17.793 17.793-28.783 35.639-36.92 56.713-7.923 20.407-13.311 43.615-14.885 77.707-1.601 34.145-1.921 45.002-1.921 131.966s.4 97.821 1.921 131.966c1.601 34.065 6.962 57.3 14.885 77.707 8.163 21.021 19.127 38.92 36.92 56.713 17.793 17.766 35.639 28.783 56.713 36.92 20.434 7.896 43.642 13.311 77.707 14.885 34.145 1.6 45.002 1.921 131.966 1.921s97.821-.4 131.966-1.921c34.065-1.601 57.3-6.989 77.707-14.885 21.021-8.163 38.92-19.153 56.713-36.92 17.766-17.793 28.783-35.613 36.92-56.713 7.896-20.407 13.311-43.642 14.885-77.707 1.601-34.145 1.921-45.002 1.921-131.966s-.4-97.821-1.921-131.966c-1.601-34.065-6.989-57.327-14.885-77.707-8.163-21.047-19.153-38.92-36.92-56.713-17.793-17.793-35.612-28.783-56.713-36.92-20.407-7.923-43.642-13.311-77.707-14.885C97.848 522.21 86.99 521.89.027 521.89zm0 57.62c85.443 0 95.634.427 129.379 1.894 31.211 1.467 48.15 6.642 59.407 11.07 14.992 5.789 25.609 12.724 36.866 23.902 11.177 11.204 18.113 21.848 23.902 36.84 4.375 11.257 9.603 28.197 11.017 59.407 1.521 33.772 1.867 43.909 1.867 129.379s-.4 95.634-1.974 129.379c-1.627 31.211-6.829 48.15-11.231 59.407-5.975 14.992-12.778 25.609-23.982 36.866-11.177 11.177-21.981 18.113-36.813 23.902-11.204 4.375-28.41 9.603-59.621 11.017-33.985 1.521-43.989 1.867-129.619 1.867-85.657 0-95.66-.4-129.619-1.974-31.238-1.627-48.444-6.829-59.648-11.231-15.179-5.975-25.609-12.778-36.786-23.982-11.231-11.177-18.406-21.981-24.008-36.813-4.402-11.204-9.577-28.41-11.204-59.621-1.2-33.612-1.627-43.989-1.627-129.219 0-85.257.427-95.66 1.627-129.672 1.627-31.211 6.802-48.39 11.204-59.594 5.602-15.205 12.778-25.609 24.008-36.84 11.177-11.177 21.608-18.38 36.786-23.955 11.204-4.428 28.036-9.63 59.247-11.231 34.012-1.2 44.015-1.601 129.619-1.601.002.003 1.203.803 1.203.803zm0 98.115c-90.832 0-164.378 73.626-164.378 164.378 0 90.832 73.626 164.378 164.378 164.378 90.832 0 164.378-73.626 164.378-164.378C164.404 751.17 90.778 677.625.027 677.625zm0 271.081c-58.954 0-106.704-47.75-106.704-106.704 0-58.954 47.75-106.704 106.704-106.704s106.704 47.75 106.704 106.704c0 58.954-47.75 106.704-106.704 106.704zm209.3-277.564c0 21.207-17.233 38.413-38.413 38.413-21.207 0-38.413-17.233-38.413-38.413s17.233-38.387 38.413-38.387c21.153-.026 38.413 17.207 38.413 38.387z"/></svg></svg>