<?xml version="1.0" encoding="utf-8"?><svg width="624" height="520" viewBox="0 0 624 520" xmlns="http://www.w3.org/2000/svg" xmlns:xlink="http://www.w3.org/1999/xlink"><view id="3dprinter" viewBox="104 0 104 104"/><svg id="aСлой_1" viewBox="-200 -200 1040 1040" width="104" height="104" x="104" xmlns="http://www.w3.org/2000/svg"><style>.ast0{fill:#fff}</style><path d="M0-1v641h640V-1H0zm558 588.5h-95.5v-47.1H558v47.1zm1-94.6H84.8V65.6H559v427.3z"/><path d="M187.9 355.9l121.4 56.4v-161l-121.4-56.4zM320 132.5l-126 51.8 124.8 58.4 120.6-61.6zM447 189.9l-120.7 62.3v163.1l121-81.1z"/><circle class="ast0" cx="111.7" cy="568" r="26.7"/></svg><view id="close" viewBox="312 311.98 104 104"/><svg viewBox="-200 -200 1040 1040" width="104" height="104" x="312" y="311.98" xmlns="http://www.w3.org/2000/svg"><path d="M391.2 320L624.7 88.6c19.6-19.5 20.5-51.9 2-72.5-18.6-20.6-49.5-21.5-69.1-2L320 249.4 82.5 14C62.9-5.5 31.9-4.5 13.4 16c-18.6 20.6-17.7 53.1 2 72.5L248.8 320 15.3 551.4c-19.6 19.5-20.5 51.9-2 72.5 18.6 20.6 49.5 21.5 69.1 2L320 390.6 557.5 626c19.6 19.5 50.6 18.5 69.1-2s17.7-53.1-2-72.5L391.2 320z"/></svg><view id="close2" viewBox="0 104 104 104"/><svg viewBox="-200 -200 1040 1040" width="104" height="104" y="104" xmlns="http://www.w3.org/2000/svg"><path d="M614.1 196.7c-24.2-57.3-64.7-106-115.6-140.4C473.1 39.1 445 25.5 415 16.2S353.1 1.8 320.1 1.8c-44 0-86 8.9-124.2 25.1-57.3 24.2-106 64.7-140.4 115.6C38.3 167.9 24.7 196 15.4 226 6 256 1 287.9 1 320.9c0 44 8.9 86 25.1 124.2 24.2 57.3 64.7 106 115.6 140.4 25.5 17.2 53.6 30.8 83.5 40.2 30 9.3 61.9 14.4 94.9 14.3 44 0 86-8.9 124.2-25.1 57.3-24.2 106-64.7 140.4-115.6 17.2-25.5 30.8-53.6 40.2-83.5 9.3-30 14.4-61.9 14.3-94.9 0-44-8.9-86-25.1-124.2zm-49.4 227.5c-20.1 47.6-53.8 88.2-96.2 116.8-21.2 14.3-44.5 25.6-69.4 33.4-24.9 7.7-51.4 11.9-78.9 11.9-36.7 0-71.6-7.4-103.3-20.8-47.6-20.1-88.2-53.8-116.8-96.2-14.3-21.2-25.6-44.5-33.4-69.4C59 375 54.8 348.5 54.8 321c0-36.7 7.4-71.6 20.8-103.3 20.1-47.6 53.8-88.2 96.2-116.8 21.2-14.3 44.5-25.6 69.4-33.4 24.9-7.7 51.4-11.9 78.9-11.9 36.7 0 71.6 7.4 103.3 20.8 47.6 20.1 88.2 53.8 116.8 96.2 14.3 21.2 25.6 44.5 33.4 69.4 7.7 24.9 11.9 51.4 11.9 78.9 0 36.7-7.4 71.6-20.8 103.3z"/><path d="M460 181.6c-8.4-9.4-22.5-9.8-31.5-.9L320.4 287.9 212.2 180.7c-8.9-8.9-23-8.4-31.5.9-8.4 9.4-8 24.2.9 33L288 320 181.7 425.4c-8.9 8.9-9.3 23.6-.9 33 8.4 9.4 22.5 9.8 31.5.9l108.2-107.2 108.2 107.2c8.9 8.9 23 8.4 31.5-.9 8.4-9.4 8-24.2-.9-33L352.8 320l106.3-105.4c9-8.8 9.4-23.6.9-33z"/></svg><view id="download-cloud" viewBox="104 104 104 104"/><svg viewBox="-200 -200 1040 1040" width="104" height="104" x="104" y="104" xmlns="http://www.w3.org/2000/svg"><path d="M229.2 510.8l-16.6 17.4L319 640l106.4-111.8-16.5-17.4-78.2 82V223.9h-23.4v368.9z"/><path d="M525.2 182.2c0-1.8.3-3.5.3-5.4C525.5 79.1 449.9 0 358.6 0 292.7 0 236 41.2 209.4 100.6c-11.6-6.1-24.4-9.7-38.3-9.7-42.3 0-77.3 35.8-84.1 78.9C36.8 188.3.5 236.6.5 296.6c0 75.6 57.3 137.2 128 137.2h130.7v-24.6H129.6c-58.4 0-106-51.1-106-113.4 0-48.3 28.9-88.5 71.7-104.2l12-4.3 2.1-13.4c5.2-32.8 31.6-59.7 62.7-59.7 9.8 0 19.6 2.5 28.4 7.2l19.3 10.3 9.3-20.9c23.7-52.9 74.4-87.1 129.1-87.1 79 0 144.1 65.8 144.1 150.2 0 20.1-.3 30.9-.3 30.9l21.7.2c52.4.8 93.7 46.2 93.7 102.2 0 55.8-42.6 101.7-95 102l-4.6.2H379.2V434h144.3c64.3 0 117-57.2 117-126.3 0-69.2-50.6-125.4-115.3-125.5"/></svg><view id="envelope-out" viewBox="208 0 104 104"/><svg viewBox="-561 156.9 1040 1040" width="104" height="104" x="208" xmlns="http://www.w3.org/2000/svg"><path d="M280 473.4c0-13.8-11-25-24.5-25h-592c-13.5 0-24.5 11.2-24.5 25v401.8c-.2 1.1-.2 2.3-.2 3.5 0 13.8 11 25 24.5 25h589c.5 0 1.1 0 1.6-.1.5 0 1.1.1 1.6.1 13.5 0 24.5-11.2 24.5-25V473.9v-.3-.2zm-49 62.3L-41 682.4l-271-146.2v-37.7h543v37.2zm-543 57l259.4 140c.1 0 .1.1.2.1h.1c.3.2.7.3 1 .5.1.1.3.1.4.2l.6.3c.2.1.5.2.7.3.1 0 .2.1.4.1l.9.3c.1 0 .1 0 .2.1.3.1.7.2 1 .3h.1c.3.1.7.2 1 .2h.1c.3.1.7.1 1 .2h.2c.3 0 .6.1 1 .1h.3c.3 0 .6.1.8.1H-39.3c.3 0 .6 0 .8-.1h.3c.3 0 .6-.1 1-.1h.2c.3-.1.7-.1 1-.2h.1c.3-.1.7-.2 1-.2h.1c.3-.1.7-.2 1-.3.1 0 .1 0 .2-.1l.9-.3c.1 0 .2-.1.4-.1.2-.1.5-.2.7-.3l.6-.3c.1-.1.3-.1.4-.2.3-.2.7-.3 1-.5h.1c.1 0 .1-.1.2-.1L231 592.2v261.5h-543v-261z"/></svg><view id="exclamation" viewBox="208 104 104 104"/><svg viewBox="-520 321.89 1040 1040" width="104" height="104" x="208" y="104" xmlns="http://www.w3.org/2000/svg"><ellipse cx="-1.013" cy="1093.466" rx="68.497" ry="68.449"/><path d="M86.088 608.157c0-47.644-38.969-86.267-87.04-86.267s-87.04 38.623-87.04 86.267c0 .963.022 1.921.053 2.876h-.053l18.457 302.699h.006c2.022 35.696 31.859 64.027 68.379 64.027s66.359-28.331 68.379-64.027h.007l18.851-302.699h-.053c.032-.955.054-1.912.054-2.876z"/></svg><view id="facebook" viewBox="0 208 104 103.98"/><svg viewBox="126.18 -114.72 596.54 596.44" width="104" height="103.98" y="208" xmlns="http://www.w3.org/2000/svg"><path d="M503.9 119.7H446v-38c0-14.3 9.4-17.6 16.1-17.6h40.8V1.5l-56.2-.2c-62.4 0-76.6 46.7-76.6 76.6v41.8H334v64.6h36.1V367h76V184.3h51.2l6.6-64.6z"/></svg><view id="gear" viewBox="312 0 104 103.99"/><svg viewBox="-278.56 19.34 1755.33 1755.13" width="104" height="103.99" x="312" xmlns="http://www.w3.org/2000/svg"><path d="M1050.1 896.9c0-59.1 37-109.5 89.1-129.6-13.7-57.5-36.4-111.7-66.5-160.7-17.9 7.9-37.3 12-56.5 12-35.4 0-71-13.5-98-40.7-41.9-41.8-51.3-103.6-28.7-154.6-49.1-30-103.3-52.8-160.8-66.5C708.7 409 658.2 446 599 446c-59.1 0-109.7-37-129.6-89.1-57.5 13.8-111.7 36.5-160.6 66.7 22.6 51 13.2 112.7-28.7 154.6-27.2 27-62.6 40.7-98 40.7-19.2 0-38.5-4-56.5-12C95.6 656 72.8 710 59.1 767.5c52.1 20.1 89.1 70.4 89.1 129.6 0 59.1-37 109.5-88.9 129.4C73 1084 95.6 1138 125.8 1187.2c17.9-7.9 37.1-12 56.4-12 35.4 0 71 13.5 98 40.7 41.7 41.7 51.3 103.4 28.7 154.4 49.1 30 103.1 52.8 160.6 66.7 20.1-52.1 70.4-88.9 129.4-88.9s109.5 37 129.4 88.9c57.5-13.7 111.7-36.4 160.6-66.7-22.6-51-13-112.6 28.7-154.4 27-27.2 62.6-40.7 98-40.7 19.2 0 38.5 4.1 56.4 12 30.2-49.1 52.8-103.1 66.7-160.7-51.7-20.1-88.6-70.5-88.6-129.6zm-448.6 224.6c-124.5 0-224.9-100.9-224.9-224.9s100.4-225 224.9-225 224.9 100.9 224.9 224.9c.2 124.1-100.2 225-224.9 225z"/></svg><view id="github" viewBox="312 103.99 104 104"/><svg viewBox="-520 321.89 1040 1040" width="104" height="104" x="312" y="103.99" xmlns="http://www.w3.org/2000/svg"><path d="M.513 528.89C-176.57 528.89-320 672.4-320 849.403c0 141.64 91.827 261.752 219.151 304.087 16.026 3.018 21.902-6.891 21.902-15.411 0-7.612-.267-27.778-.401-54.487-89.156 19.338-107.959-43.002-107.959-43.002-14.583-36.993-35.657-46.875-35.657-46.875-29.033-19.872 2.244-19.471 2.244-19.471 32.185 2.244 49.092 33.013 49.092 33.013 28.579 49.012 75.027 34.856 93.349 26.656 2.885-20.726 11.138-34.856 20.299-42.869-71.181-8.013-145.994-35.577-145.994-158.387 0-34.989 12.42-63.568 32.986-86.004-3.606-8.093-14.423-40.678 2.804-84.829 0 0 26.843-8.6 88.141 32.853 25.641-7.131 52.885-10.657 80.128-10.817 27.244.16 54.487 3.686 80.128 10.817 60.897-41.453 87.74-32.853 87.74-32.853 17.228 44.151 6.41 76.736 3.205 84.829 20.433 22.436 32.853 51.015 32.853 86.004 0 123.13-74.92 150.24-146.234 158.12 11.218 9.615 21.635 29.274 21.635 59.295 0 42.895-.401 77.351-.401 87.767 0 8.413 5.609 18.429 22.035 15.224 128.232-42.041 219.979-162.233 219.979-303.659C321.026 672.4 177.516 528.89.513 528.89"/></svg><view id="grid" viewBox="0 311.98 104 104"/><svg viewBox="-561 156.9 1040 1040" width="104" height="104" y="311.98" xmlns="http://www.w3.org/2000/svg"><circle cx="-293.3" cy="676.9" r="67.7"/><circle cx="-293.3" cy="929.2" r="67.7"/><circle cx="-293.3" cy="424.6" r="67.7"/><circle cx="-41" cy="676.9" r="67.7"/><circle cx="-41" cy="929.2" r="67.7"/><circle cx="-41" cy="424.6" r="67.7"/><circle cx="211.3" cy="676.9" r="67.7"/><circle cx="211.3" cy="929.2" r="67.7"/><circle cx="211.3" cy="424.6" r="67.7"/></svg><view id="heart" viewBox="104 311.98 104 104"/><svg viewBox="-520 321.89 1040 1040" width="104" height="104" x="104" y="311.98" xmlns="http://www.w3.org/2000/svg"><path d="M267.289 594.747c-62.1-64.938-162.948-64.938-225.032 0L-.013 638.71l-42.27-44.115c-62.237-64.94-162.917-64.94-225.017 0-69.938 72.96-69.938 191.421 0 264.38L-.013 1138.321 267.289 859.13c69.953-72.96 69.953-191.421 0-264.383"/></svg><view id="heart-out" viewBox="208 311.98 104 104"/><svg viewBox="-520 321.89 1040 1040" width="104" height="104" x="208" y="311.98" xmlns="http://www.w3.org/2000/svg"><path d="M144 521.89c-56.016 0-108.8 27.913-144 73.249-35.2-45.336-88-73.249-144.015-73.249-99.2 0-175.985 83.714-175.985 191.829 0 132.529 108.785 238.911 273.584 402.807L0 1161.89l46.4-45.364C211.2 952.613 320 846.232 320 713.719c0-108.115-76.8-191.829-176-191.829M19.739 1070.641l-6.493 6.453L0 1090.057l-13.262-12.947-6.477-6.47c-77.569-77.114-144.554-143.747-188.846-203.312-43.015-57.848-62.185-105.23-62.185-153.61 0-38.118 12.954-73.216 36.477-98.867 23.461-25.549 55.523-39.631 90.277-39.631 40.231 0 79.969 20.284 106.323 54.247L0 677.986l37.677-48.518c26.369-33.963 66.108-54.247 106.323-54.247 34.769 0 66.831 14.083 90.277 39.631 23.538 25.65 36.477 60.749 36.477 98.867 0 48.379-19.169 95.762-62.184 153.61-44.278 59.565-111.262 126.181-188.831 203.312"/></svg><view id="home" viewBox="0 0 104 104"/><svg viewBox="-561 156.9 1040 1040" width="104" height="104" xmlns="http://www.w3.org/2000/svg"><path d="M-114.6 997.5V783.9H33v213.6h150.1V677.2H279L-40.8 356.9l-319.7 320.3h95.9v320.3z"/></svg><view id="home2" viewBox="416 0 104 104"/><svg viewBox="-200 -200 1040 1040" width="104" height="104" x="416" xmlns="http://www.w3.org/2000/svg"><path d="M320 80L53.3 293.3V640H240V426.7h160V640h186.7V293.3L320 80zm240 533.3H426.7V400H213.3v213.3H80V306.1l240-192 240 192v307.2z"/><path d="M320 0L160 128V53.3H53.3v160L0 255.8l19.2 19L320 34.1l300.8 240.6 19.2-19L320 0zM133.3 149.3L80 192V80h53.3v69.3z"/></svg><view id="instagram" viewBox="416 104 104 103.98"/><svg viewBox="126.18 -114.72 596.54 596.44" width="104" height="103.98" x="416" y="104" xmlns="http://www.w3.org/2000/svg"><path d="M424.5-.1c-49.9 0-56.1.2-75.7 1.1-19.5 1-32.8 4-44.5 8.6-12.1 4.7-22.3 11-32.5 21.2s-16.5 20.4-21.2 32.5c-4.5 11.7-7.6 25-8.5 44.6-.9 19.6-1.1 25.8-1.1 75.7s.2 56.1 1.1 75.7c.9 19.5 4 32.9 8.5 44.6 4.7 12.1 11 22.3 21.2 32.5s20.4 16.5 32.5 21.2c11.7 4.5 25 7.6 44.6 8.5 19.6.9 25.8 1.1 75.7 1.1s56.1-.2 75.7-1.1c19.5-.9 32.9-4 44.6-8.5 12.1-4.7 22.3-11 32.5-21.2s16.5-20.4 21.2-32.5c4.5-11.7 7.6-25 8.5-44.6.9-19.6 1.1-25.8 1.1-75.7s-.2-56.1-1.1-75.7c-.9-19.5-4-32.9-8.5-44.6-4.7-12.1-11-22.3-21.2-32.5S557 14.3 544.9 9.6C533 5 519.7 1.9 500.2 1 480.6.1 474.4-.1 424.5-.1zm0 33.1c49 0 54.8.2 74.2 1.1 17.9.8 27.6 3.8 34.1 6.3 8.6 3.3 14.7 7.3 21.1 13.7 6.4 6.4 10.4 12.5 13.7 21.1 2.5 6.5 5.5 16.2 6.3 34.1.9 19.4 1.1 25.2 1.1 74.2s-.2 54.8-1.1 74.2c-.9 17.9-3.9 27.6-6.4 34.1-3.4 8.6-7.3 14.7-13.8 21.1-6.4 6.4-12.6 10.4-21.1 13.7-6.4 2.5-16.3 5.5-34.2 6.3-19.5.9-25.2 1.1-74.3 1.1-49.1 0-54.9-.2-74.3-1.1-17.9-.9-27.8-3.9-34.2-6.4-8.7-3.4-14.7-7.3-21.1-13.8-6.4-6.4-10.6-12.6-13.8-21.1-2.5-6.4-5.5-16.3-6.4-34.2-.7-19.3-.9-25.2-.9-74.1 0-48.9.2-54.9.9-74.4.9-17.9 3.9-27.7 6.4-34.2 3.2-8.7 7.3-14.7 13.8-21.1 6.4-6.4 12.4-10.5 21.1-13.7 6.4-2.5 16.1-5.5 34-6.4 19.5-.7 25.2-.9 74.3-.9-.1-.1.6.4.6.4zm0 56.2c-52.1 0-94.3 42.2-94.3 94.3 0 52.1 42.2 94.3 94.3 94.3 52.1 0 94.3-42.2 94.3-94.3 0-52.1-42.3-94.3-94.3-94.3zm0 155.5c-33.8 0-61.2-27.4-61.2-61.2s27.4-61.2 61.2-61.2 61.2 27.4 61.2 61.2-27.4 61.2-61.2 61.2zm120-159.2c0 12.2-9.9 22-22 22-12.2 0-22-9.9-22-22s9.9-22 22-22 22 9.9 22 22z"/></svg><view id="nav" viewBox="416 207.98000000000002 104 104"/><svg id="pСлой_1" viewBox="-200 -200 1040 1040" width="104" height="104" x="416" y="207.98000000000002" xmlns="http://www.w3.org/2000/svg"><style>.pst0{fill-rule:evenodd;clip-rule:evenodd}</style><path class="pst0" d="M0 154.9h640v40H0zM0 0h640v40H0zM0 307.3h640v40H0zM0 459.6h640v40H0zM0 600h640v40H0z"/></svg><view id="qrcode" viewBox="416 311.98 104 104"/><svg viewBox="-520 321.89 1040 1040" width="104" height="104" x="416" y="311.98" xmlns="http://www.w3.org/2000/svg"><path d="M-145.211 521.89h-116.526c-32.19 0-58.263 26.037-58.263 58.184v116.369c0 32.147 26.073 58.184 58.263 58.184h116.526c32.19 0 58.263-26.037 58.263-58.184V580.074c0-32.147-26.073-58.184-58.263-58.184zm0 174.553h-116.526V580.074h116.526v116.369zm-29.132-29.092h-58.263v-58.184h58.263v58.184zM-145.211 929.18h-116.526c-32.19 0-58.263 26.037-58.263 58.184v116.369c0 32.147 26.073 58.184 58.263 58.184h116.526c32.19 0 58.263-26.037 58.263-58.184V987.364c0-32.147-26.073-58.184-58.263-58.184zm0 174.553h-116.526V987.364h116.526v116.369zm-29.132-29.092h-58.263v-58.184h58.263v58.184zM262.63 521.89H146.104c-32.19 0-58.263 26.037-58.263 58.184v116.369c0 32.147 26.073 58.184 58.263 58.184H262.63c32.19 0 58.263-26.037 58.263-58.184V580.074c0-32.147-26.073-58.184-58.263-58.184zm0 174.553H146.104V580.074H262.63v116.369zm-29.132-29.092h-58.263v-58.184h58.263v58.184zM-28.685 580.074h58.263v58.184h-58.263zM-28.685 696.443h58.263v58.184h-58.263zM-28.685 812.811h58.263v58.184h-58.263zM-145.211 812.811h58.263v58.184h-58.263zM-261.737 812.811h58.263v58.184h-58.263zM87.841 812.811h58.263v58.184H87.841zM204.367 812.811h58.263v58.184h-58.263zM29.578 870.996h58.263v58.184H29.578zM146.104 870.996h58.263v58.184h-58.263zM87.841 929.18h58.263v58.184H87.841zM-28.685 929.18h58.263v58.184h-58.263zM29.578 987.364h58.263v58.184H29.578zM87.841 1045.549h58.263v58.184H87.841zM29.578 1103.733h58.263v58.184H29.578zM262.63 870.996h58.263v58.184H262.63zM262.63 987.364h58.263v58.184H262.63zM146.104 987.364h58.263v58.184h-58.263zM146.104 1103.733h58.263v58.184h-58.263zM204.367 1045.549h58.263v58.184h-58.263zM204.367 929.18h58.263v58.184h-58.263zM-28.685 1045.549h58.263v58.184h-58.263z"/></svg><view id="telephone" viewBox="0 415.98 104 104"/><svg viewBox="-561 156.9 1040 1040" width="104" height="104" y="415.98" xmlns="http://www.w3.org/2000/svg"><path d="M243.4 801.3c-44.4 0-87.1-7.1-126.2-19.5-12.5-3.6-26.7-1.8-35.6 8.9L3.5 868.9c-101.3-51.5-183.1-133.3-234.7-234.7L-153 556c8.9-8.9 12.4-23.1 8.9-35.5-14.2-40.9-21.3-83.6-21.3-128 0-19.5-16-35.6-35.5-35.6h-124.5c-19.6 0-35.5 16-35.5 35.6 0 334.2 270.2 604.4 604.4 604.4 19.5 0 35.6-16 35.6-35.6V836.9c-.1-19.5-16.1-35.6-35.7-35.6"/></svg><view id="triangle-down" viewBox="312 207.99 104 67.67"/><svg viewBox="-265.31 -265.31 1379.63 897.63" width="104" height="67.67" x="312" y="207.99" xmlns="http://www.w3.org/2000/svg"><path d="M241.2 59.8l183.3 247 183.3-247z"/></svg><view id="triangle-left" viewBox="104 208 104 67.67"/><svg viewBox="-265.31 -265.31 1379.63 897.63" width="104" height="67.67" x="104" y="208" xmlns="http://www.w3.org/2000/svg"><path d="M547 0L300 183.3l247 183.3z"/></svg><view id="triangle-right" viewBox="208 208 104 67.67"/><svg viewBox="-265.31 -265.31 1379.63 897.63" width="104" height="67.67" x="208" y="208" xmlns="http://www.w3.org/2000/svg"><path d="M301 366.6l247-183.3L301 0z"/></svg><view id="triangle-up" viewBox="104 415.98 104 67.67"/><svg viewBox="-265.31 -265.31 1379.63 897.63" width="104" height="67.67" x="104" y="415.98" xmlns="http://www.w3.org/2000/svg"><path d="M607.8 306.8l-183.3-247-183.3 247z"/></svg><view id="vk" viewBox="520 0 104 103.81"/><svg viewBox="607.87 -115.03 598.16 597.06" width="104" height="103.81" x="520" xmlns="http://www.w3.org/2000/svg"><path fill="none" d="M1007.4 218.5c-6.2-7.3-15.5-15.3-18.4-19.2-4-5.1-2.8-7.3 0-11.9-.1 0 32.4-45.8 35.8-61.3 1.7-5.7 0-9.8-8.1-9.8H990c-6.8 0-9.9 3.6-11.6 7.5 0 0-13.6 33.1-32.8 54.6-6.2 6.2-9 8.2-12.4 8.2-1.7 0-4.2-2-4.2-7.6v-52.9c0-6.8-2-9.8-7.6-9.8h-41.9c-4.2 0-6.8 3.1-6.8 6.1 0 6.4 9.6 7.9 10.6 26v39.3c0 8.6-1.6 10.2-4.9 10.2-9 0-31-33.2-44.1-71.2-2.6-7.4-5.1-10.4-11.9-10.4h-26.7c-7.6 0-9.1 3.6-9.1 7.5 0 7.1 9 42.1 42.1 88.5 22 31.7 53.1 48.8 81.4 48.8 17 0 19.1-3.8 19.1-10.4v-23.9c0-7.6 1.6-9.1 7-9.1 4 0 10.7 2 26.6 17.2 18.1 18.1 21.1 26.2 31.2 26.2h26.7c7.6 0 11.4-3.8 9.2-11.3-2.4-7.5-11-18.4-22.5-31.3z"/><path d="M963.4 0H850.5c-103 0-127.6 24.5-127.6 127.3v112.5c0 102.7 24.5 127.2 127.6 127.2h112.9c103.1 0 127.6-24.6 127.6-127.3V127.2C1091 24.5 1066.5 0 963.4 0zm57.3 261.1H994c-10.1 0-13.1-8.1-31.2-26.2-15.9-15.2-22.6-17.2-26.6-17.2-5.4 0-7 1.5-7 9.1v23.9c0 6.6-2.1 10.4-19.1 10.4-28.3 0-59.4-17.1-81.4-48.8-33.1-46.4-42.1-81.4-42.1-88.5 0-3.9 1.5-7.5 9.1-7.5h26.7c6.8 0 9.3 3 11.9 10.4 13.1 38 35.1 71.2 44.1 71.2 3.3 0 4.9-1.6 4.9-10.2v-39.3c-1-18.1-10.6-19.6-10.6-26 0-3 2.6-6.1 6.8-6.1h41.9c5.6 0 7.6 3 7.6 9.8V179c0 5.6 2.5 7.6 4.2 7.6 3.4 0 6.2-2 12.4-8.2 19.2-21.5 32.8-54.6 32.8-54.6 1.7-3.9 4.8-7.5 11.6-7.5h26.7c8.1 0 9.8 4.1 8.1 9.8-3.4 15.5-35.9 61.3-35.8 61.3-2.8 4.6-4 6.8 0 11.9 2.9 3.9 12.2 11.9 18.4 19.2 11.5 12.9 20.1 23.8 22.5 31.3 2.2 7.5-1.6 11.3-9.2 11.3z"/></svg><view id="youtube" viewBox="520 103.81 104 103.98"/><svg viewBox="126.18 -114.72 596.54 596.44" width="104" height="103.98" x="520" y="103.81" xmlns="http://www.w3.org/2000/svg"><path d="M608.2 104.1s-3.6-27.3-14.7-39.3C579.4 49 563.6 48.9 556.3 48c-51.9-4-129.8-4-129.8-4h-.2s-77.9 0-129.8 4c-7.2.9-23 1-37.2 16.7-11.1 12-14.7 39.3-14.7 39.3s-3.7 32-3.7 64v30c0 32 3.7 64.1 3.7 64.1s3.6 27.3 14.7 39.3c14.1 15.7 32.6 15.3 40.9 16.9 29.7 3 126.1 4 126.1 4s78-.1 129.9-4.1c7.2-.9 23.1-1 37.2-16.8 11.1-12 14.7-39.3 14.7-39.3s3.7-32 3.7-64.1v-30c.1-31.9-3.6-63.9-3.6-63.9zM380.1 252.8V113.6l116 69.6-116 69.6z"/></svg></svg>